<?xml version="1.0" encoding="UTF-8"?>
<!DOCTYPE svg PUBLIC "-//W3C//DTD SVG 1.1//EN" "http://www.w3.org/Graphics/SVG/1.1/DTD/svg11.dtd">
<svg xmlns="http://www.w3.org/2000/svg" version="1.1" width="711px" height="129px" style="shape-rendering:geometricPrecision; text-rendering:geometricPrecision; image-rendering:optimizeQuality; fill-rule:evenodd; clip-rule:evenodd" xmlns:xlink="http://www.w3.org/1999/xlink">
<g><path style="opacity:0.999" fill="#7f8083" d="M 568.5,40.5 C 568.852,43.0728 568.352,45.4062 567,47.5C 566.716,40.3611 564.883,33.6945 561.5,27.5C 560.707,27.9312 559.873,28.2645 559,28.5C 557.946,27.5176 557.446,26.3509 557.5,25C 556.271,24.2189 554.938,23.7189 553.5,23.5C 551.004,24.2515 548.67,25.2515 546.5,26.5C 547.684,25.3121 547.684,24.1455 546.5,23C 544,21.1667 541.5,19.3333 539,17.5C 538.617,18.056 538.117,18.3893 537.5,18.5C 538.936,16.917 540.602,15.417 542.5,14C 537.905,12.1987 533.239,10.6987 528.5,9.5C 528.082,10.2216 527.416,10.7216 526.5,11C 527.056,11.3826 527.389,11.8826 527.5,12.5C 525.5,12.5 523.5,12.5 521.5,12.5C 520.162,10.8872 518.495,10.3872 516.5,11C 517.056,11.3826 517.389,11.8826 517.5,12.5C 516.609,13.1098 515.609,13.4431 514.5,13.5C 514.013,12.5266 513.513,11.5266 513,10.5C 511.35,13.106 509.85,13.106 508.5,10.5C 504.217,8.84995 499.883,7.51661 495.5,6.5C 524.278,-6.18694 547.111,0.813061 564,27.5C 565.575,31.9448 567.075,36.2781 568.5,40.5 Z"/></g>
<g><path style="opacity:0.958" fill="#000000" d="M 495.5,6.5 C 499.883,7.51661 504.217,8.84995 508.5,10.5C 509.85,13.106 511.35,13.106 513,10.5C 513.513,11.5266 514.013,12.5266 514.5,13.5C 512.146,13.838 509.813,14.338 507.5,15C 506.978,15.5613 506.645,16.228 506.5,17C 507.581,18.3707 508.415,19.8707 509,21.5C 510.011,20.6634 511.178,20.33 512.5,20.5C 512.5,19.5 512.5,18.5 512.5,17.5C 516.352,17.6824 518.685,19.6824 519.5,23.5C 517.289,23.8977 514.956,24.0643 512.5,24C 512.957,24.414 513.291,24.914 513.5,25.5C 508.62,26.6234 504.287,28.7901 500.5,32C 499.809,33.0674 499.309,34.2341 499,35.5C 498.517,34.552 498.351,33.552 498.5,32.5C 492.316,29.7796 489.316,31.7796 489.5,38.5C 490.822,38.67 491.989,38.3366 493,37.5C 492.719,40.0571 492.886,42.7237 493.5,45.5C 492.663,43.1413 491.163,41.1413 489,39.5C 488.283,40.0442 487.783,40.7109 487.5,41.5C 481.409,41.2114 475.409,41.5447 469.5,42.5C 467.396,42.2011 465.396,42.5344 463.5,43.5C 461.821,47.6174 460.155,51.6174 458.5,55.5C 450.167,55.5 441.833,55.5 433.5,55.5C 435.111,51.2713 436.444,46.938 437.5,42.5C 429.391,43.1136 421.558,42.4469 414,40.5C 413.068,46.1616 410.901,51.1616 407.5,55.5C 384.5,55.5 361.5,55.5 338.5,55.5C 342.757,45.398 346.423,35.0647 349.5,24.5C 367.858,23.0316 386.192,23.1982 404.5,25C 412.001,26.8057 415.501,31.639 415,39.5C 416.445,34.4941 418.279,29.6607 420.5,25C 439.164,24.5001 457.83,24.3334 476.5,24.5C 478.607,25.4682 480.941,25.8016 483.5,25.5C 483.846,21.6409 485.68,18.6409 489,16.5C 489.977,14.26 490.477,11.9267 490.5,9.5C 491.659,7.74973 493.326,6.74973 495.5,6.5 Z M 369.5,40.5 C 375.245,40.2111 380.912,40.7111 386.5,42C 387.302,46.3985 385.635,49.7319 381.5,52C 376.167,52.6667 370.833,52.6667 365.5,52C 367.53,48.4109 368.863,44.5776 369.5,40.5 Z"/></g>
<g><path style="opacity:1" fill="#111112" d="M 508.5,10.5 C 506.924,9.71679 505.591,8.55012 504.5,7C 506.408,7.48241 508.408,8.14908 510.5,9C 509.956,9.71719 509.289,10.2172 508.5,10.5 Z"/></g>
<g><path style="opacity:1" fill="#111111" d="M 528.5,9.5 C 525.428,9.81741 522.428,9.48408 519.5,8.5C 522.809,7.07046 525.809,7.4038 528.5,9.5 Z"/></g>
<g><path style="opacity:1" fill="#070708" d="M 528.5,9.5 C 533.239,10.6987 537.905,12.1987 542.5,14C 540.602,15.417 538.936,16.917 537.5,18.5C 533.869,18.0323 530.535,18.699 527.5,20.5C 527.597,17.7363 527.597,15.0696 527.5,12.5C 527.389,11.8826 527.056,11.3826 526.5,11C 527.416,10.7216 528.082,10.2216 528.5,9.5 Z"/></g>
<g><path style="opacity:0.997" fill="#757679" d="M 490.5,9.5 C 490.477,11.9267 489.977,14.26 489,16.5C 485.68,18.6409 483.846,21.6409 483.5,25.5C 480.941,25.8016 478.607,25.4682 476.5,24.5C 479.783,18.2166 484.45,13.2166 490.5,9.5 Z"/></g>
<g><path style="opacity:1" fill="#161617" d="M 521.5,12.5 C 521.716,14.6807 520.883,16.3474 519,17.5C 517.322,16.3183 517.488,15.1516 519.5,14C 519.164,12.9701 518.497,12.4701 517.5,12.5C 517.389,11.8826 517.056,11.3826 516.5,11C 518.495,10.3872 520.162,10.8872 521.5,12.5 Z"/></g>
<g><path style="opacity:1" fill="#9d9fa2" d="M 517.5,12.5 C 518.497,12.4701 519.164,12.9701 519.5,14C 517.488,15.1516 517.322,16.3183 519,17.5C 520.883,16.3474 521.716,14.6807 521.5,12.5C 523.5,12.5 525.5,12.5 527.5,12.5C 527.597,15.0696 527.597,17.7363 527.5,20.5C 530.535,18.699 533.869,18.0323 537.5,18.5C 538.117,18.3893 538.617,18.056 539,17.5C 541.5,19.3333 544,21.1667 546.5,23C 547.684,24.1455 547.684,25.3121 546.5,26.5C 547.476,27.8149 548.476,29.1482 549.5,30.5C 550.439,28.9466 551.606,27.6133 553,26.5C 553.147,27.6033 553.98,28.77 555.5,30C 553.726,30.9704 551.893,31.8037 550,32.5C 546.865,31.5677 543.699,31.5677 540.5,32.5C 540.762,33.9778 540.429,35.3112 539.5,36.5C 538.893,36.3764 538.56,36.0431 538.5,35.5C 539.532,32.0677 538.198,29.5677 534.5,28C 529.997,24.7434 524.997,23.2434 519.5,23.5C 518.685,19.6824 516.352,17.6824 512.5,17.5C 512.5,18.5 512.5,19.5 512.5,20.5C 511.178,20.33 510.011,20.6634 509,21.5C 508.415,19.8707 507.581,18.3707 506.5,17C 506.645,16.228 506.978,15.5613 507.5,15C 509.813,14.338 512.146,13.838 514.5,13.5C 515.609,13.4431 516.609,13.1098 517.5,12.5 Z"/></g>
<g><path style="opacity:0.949" fill="#000000" d="M 176.5,55.5 C 158.659,55.1699 140.992,55.5033 123.5,56.5C 120.173,37.9218 128.173,27.0885 147.5,24C 158.5,23.3333 169.5,23.3333 180.5,24C 184.943,24.5275 189.277,25.5275 193.5,27C 191.266,31.859 188.933,36.6924 186.5,41.5C 173.846,42.3326 161.18,42.8326 148.5,43C 158.429,46.1305 167.762,50.2971 176.5,55.5 Z"/></g>
<g><path style="opacity:0.946" fill="#000000" d="M 250.5,56.5 C 229.673,55.5027 208.673,55.1694 187.5,55.5C 190.833,45.1667 194.167,34.8333 197.5,24.5C 213.486,23.4671 229.486,23.3004 245.5,24C 264.627,26.0949 268.794,35.2615 258,51.5C 255.872,53.8077 253.372,55.4744 250.5,56.5 Z M 217.5,40.5 C 222.179,40.3342 226.845,40.5008 231.5,41C 236.494,41.1565 237.661,43.3232 235,47.5C 234.097,48.7014 232.931,49.5348 231.5,50C 225.804,50.8299 220.137,50.6632 214.5,49.5C 215.35,46.4273 216.35,43.4273 217.5,40.5 Z"/></g>
<g><path style="opacity:1" fill="#adafb2" d="M 519.5,23.5 C 524.997,23.2434 529.997,24.7434 534.5,28C 538.198,29.5677 539.532,32.0677 538.5,35.5C 536.824,36.1834 536.157,37.5168 536.5,39.5C 538.514,39.6085 540.18,38.9418 541.5,37.5C 542.978,37.238 544.311,37.5713 545.5,38.5C 546.189,40.5223 547.522,41.8556 549.5,42.5C 551.203,41.3398 551.869,42.0065 551.5,44.5C 554.694,44.1756 555.694,45.3422 554.5,48C 552.08,48.6869 549.913,48.1869 548,46.5C 547.586,46.9574 547.086,47.2907 546.5,47.5C 544.585,45.9288 543.585,43.9288 543.5,41.5C 534.974,40.6854 529.307,44.3521 526.5,52.5C 527.167,54.5 527.833,56.5 528.5,58.5C 530.766,59.3142 533.1,59.8142 535.5,60C 536.574,60.7387 537.241,61.7387 537.5,63C 537.044,66.1085 536.878,69.2751 537,72.5C 536.365,73.9663 535.531,75.2997 534.5,76.5C 535.516,79.1337 535.516,81.8004 534.5,84.5C 532.266,86.4459 529.599,87.6126 526.5,88C 515.24,90.0718 505.24,87.5718 496.5,80.5C 498.019,78.9836 499.853,77.6503 502,76.5C 502.74,72.9259 504.907,70.9259 508.5,70.5C 509.666,67.4968 511.333,64.8302 513.5,62.5C 509.3,57.9253 505.633,52.9253 502.5,47.5C 500.765,46.943 499.098,46.6097 497.5,46.5C 496.055,48.3936 494.388,50.0603 492.5,51.5C 492.141,49.2341 492.808,47.4007 494.5,46C 494.272,45.6012 493.938,45.4346 493.5,45.5C 492.886,42.7237 492.719,40.0571 493,37.5C 491.989,38.3366 490.822,38.67 489.5,38.5C 489.316,31.7796 492.316,29.7796 498.5,32.5C 498.351,33.552 498.517,34.552 499,35.5C 499.309,34.2341 499.809,33.0674 500.5,32C 504.287,28.7901 508.62,26.6234 513.5,25.5C 513.291,24.914 512.957,24.414 512.5,24C 514.956,24.0643 517.289,23.8977 519.5,23.5 Z"/></g>
<g><path style="opacity:0.969" fill="#000001" d="M 568.5,40.5 C 570.723,35.7015 572.723,30.7015 574.5,25.5C 575.833,25.1667 577.167,24.8333 578.5,24.5C 593.151,23.4004 607.818,23.2338 622.5,24C 627.446,24.4027 632.113,25.7361 636.5,28C 637.701,28.9025 638.535,30.0692 639,31.5C 640.606,39.3358 638.939,46.3358 634,52.5C 632.028,54.2318 629.861,55.5652 627.5,56.5C 606.671,55.6681 585.671,55.1681 564.5,55C 563.333,53.8333 562.167,52.6667 561,51.5C 560.333,52.8333 560.333,54.1667 561,55.5C 561.951,55.8836 562.784,56.2169 563.5,56.5C 563.34,58.153 562.674,59.4863 561.5,60.5C 559.883,61.038 558.216,61.3713 556.5,61.5C 556.24,57.6981 555.406,54.0314 554,50.5C 553.466,54.859 553.632,59.1924 554.5,63.5C 555.978,63.238 557.311,63.5713 558.5,64.5C 555.804,67.2733 552.971,69.94 550,72.5C 548.164,78.041 544.998,82.8743 540.5,87C 538.975,88.0086 537.308,88.5086 535.5,88.5C 535.768,86.901 535.434,85.5676 534.5,84.5C 535.516,81.8004 535.516,79.1337 534.5,76.5C 535.531,75.2997 536.365,73.9663 537,72.5C 536.878,69.2751 537.044,66.1085 537.5,63C 537.241,61.7387 536.574,60.7387 535.5,60C 533.1,59.8142 530.766,59.3142 528.5,58.5C 527.833,56.5 527.167,54.5 526.5,52.5C 529.307,44.3521 534.974,40.6854 543.5,41.5C 543.585,43.9288 544.585,45.9288 546.5,47.5C 547.086,47.2907 547.586,46.9574 548,46.5C 549.913,48.1869 552.08,48.6869 554.5,48C 555.694,45.3422 554.694,44.1756 551.5,44.5C 551.869,42.0065 551.203,41.3398 549.5,42.5C 548.874,37.3092 546.207,35.6426 541.5,37.5C 540.18,38.9418 538.514,39.6085 536.5,39.5C 536.157,37.5168 536.824,36.1834 538.5,35.5C 538.56,36.0431 538.893,36.3764 539.5,36.5C 540.429,35.3112 540.762,33.9778 540.5,32.5C 543.699,31.5677 546.865,31.5677 550,32.5C 551.893,31.8037 553.726,30.9704 555.5,30C 553.98,28.77 553.147,27.6033 553,26.5C 551.606,27.6133 550.439,28.9466 549.5,30.5C 548.476,29.1482 547.476,27.8149 546.5,26.5C 548.67,25.2515 551.004,24.2515 553.5,23.5C 554.938,23.7189 556.271,24.2189 557.5,25C 557.446,26.3509 557.946,27.5176 559,28.5C 559.873,28.2645 560.707,27.9312 561.5,27.5C 564.883,33.6945 566.716,40.3611 567,47.5C 568.352,45.4062 568.852,43.0728 568.5,40.5 Z M 594.5,40.5 C 600.529,40.4255 606.529,40.7588 612.5,41.5C 612.838,44.1569 612.171,46.4902 610.5,48.5C 606.86,50.0421 603.027,50.7088 599,50.5C 596.167,50.3333 593.333,50.1667 590.5,50C 592.129,46.9434 593.462,43.7768 594.5,40.5 Z"/></g>
<g><path style="opacity:0.946" fill="#000000" d="M 710.5,26.5 C 710.5,27.5 710.5,28.5 710.5,29.5C 708.546,33.4081 706.546,37.4081 704.5,41.5C 691.846,42.3326 679.18,42.8326 666.5,43C 672.421,45.5294 678.421,47.8628 684.5,50C 687.898,51.3571 690.898,53.1904 693.5,55.5C 675.992,55.17 658.659,55.5033 641.5,56.5C 639.657,54.8413 638.657,52.6746 638.5,50C 641.236,34.9321 650.236,26.2655 665.5,24C 676.5,23.3333 687.5,23.3333 698.5,24C 702.584,24.5218 706.584,25.3551 710.5,26.5 Z"/></g>
<g><path style="opacity:0.999" fill="#b7b8ba" d="M 6.5,72.5 C 14.9318,71.1862 23.2651,71.1862 31.5,72.5C 31.5,72.8333 31.5,73.1667 31.5,73.5C 30.9569,73.56 30.6236,73.8933 30.5,74.5C 35.9864,75.8147 41.3197,75.8147 46.5,74.5C 52.8891,72.4509 57.0557,68.1176 59,61.5C 60.8072,56.5795 62.3072,51.5795 63.5,46.5C 62.8671,44.2145 61.5338,42.5478 59.5,41.5C 56.8541,40.8356 54.0208,40.5022 51,40.5C 47.7485,40.5191 44.9151,41.1858 42.5,42.5C 42.5,42.8333 42.5,43.1667 42.5,43.5C 34.4723,43.831 26.4723,43.4977 18.5,42.5C 19.3094,40.9291 19.6427,39.2624 19.5,37.5C 20.624,33.4612 21.9574,29.4612 23.5,25.5C 39.4445,23.5571 55.4445,23.0571 71.5,24C 83.226,23.5714 89.8926,29.0714 91.5,40.5C 89.6918,56.7836 83.3584,70.9502 72.5,83C 68.3913,86.3877 63.7246,88.721 58.5,90C 48.9355,91.9288 39.2689,92.7621 29.5,92.5C 19.8264,92.2645 10.1598,91.9312 0.5,91.5C 1.69786,84.9067 3.69786,78.5734 6.5,72.5 Z"/></g>
<g><path style="opacity:0.937" fill="#000000" d="M 115.5,55.5 C 107.167,55.5 98.8333,55.5 90.5,55.5C 93.8725,45.2148 97.5392,35.0481 101.5,25C 109.827,24.5003 118.16,24.3336 126.5,24.5C 123.408,35.1124 119.742,45.4458 115.5,55.5 Z"/></g>
<g><path style="opacity:0.937" fill="#000000" d="M 285.5,56.5 C 277.35,55.5073 269.017,55.1739 260.5,55.5C 264.161,45.5174 267.828,35.5174 271.5,25.5C 280.167,24.1667 288.833,24.1667 297.5,25.5C 293.722,36.0329 289.722,46.3662 285.5,56.5 Z"/></g>
<g><path style="opacity:0.936" fill="#000000" d="M 334.5,56.5 C 326.35,55.5073 318.017,55.1739 309.5,55.5C 313.15,45.5254 316.817,35.5254 320.5,25.5C 329.147,24.3348 337.814,24.1681 346.5,25C 342.575,35.6213 338.575,46.1213 334.5,56.5 Z"/></g>
<g><path style="opacity:1" fill="#646467" d="M 541.5,37.5 C 546.207,35.6426 548.874,37.3092 549.5,42.5C 547.522,41.8556 546.189,40.5223 545.5,38.5C 544.311,37.5713 542.978,37.238 541.5,37.5 Z"/></g>
<g><path style="opacity:0.301" fill="#6d6e71" d="M 59.5,41.5 C 53.7414,41.2143 48.0748,41.5476 42.5,42.5C 44.9151,41.1858 47.7485,40.5191 51,40.5C 54.0208,40.5022 56.8541,40.8356 59.5,41.5 Z"/></g>
<g><path style="opacity:1" fill="#a2a4a7" d="M 493.5,45.5 C 493.938,45.4346 494.272,45.6012 494.5,46C 492.808,47.4007 492.141,49.2341 492.5,51.5C 491.502,56.6745 492.502,61.5078 495.5,66C 494.416,69.1782 493.416,72.3449 492.5,75.5C 489.572,74.4086 487.406,72.4086 486,69.5C 481.767,61.6669 480.1,53.3336 481,44.5C 482.991,43.0082 485.158,42.0082 487.5,41.5C 487.783,40.7109 488.283,40.0442 489,39.5C 491.163,41.1413 492.663,43.1413 493.5,45.5 Z"/></g>
<g><path style="opacity:0.999" fill="#828487" d="M 487.5,41.5 C 485.158,42.0082 482.991,43.0082 481,44.5C 480.1,53.3336 481.767,61.6669 486,69.5C 487.406,72.4086 489.572,74.4086 492.5,75.5C 492.681,78.3971 492.348,81.2305 491.5,84C 491.862,85.2247 492.362,86.3914 493,87.5C 494.276,85.1417 495.442,82.8084 496.5,80.5C 505.24,87.5718 515.24,90.0718 526.5,88C 529.599,87.6126 532.266,86.4459 534.5,84.5C 535.434,85.5676 535.768,86.901 535.5,88.5C 537.308,88.5086 538.975,88.0086 540.5,87C 544.998,82.8743 548.164,78.041 550,72.5C 552.971,69.94 555.804,67.2733 558.5,64.5C 557.311,63.5713 555.978,63.238 554.5,63.5C 553.632,59.1924 553.466,54.859 554,50.5C 555.406,54.0314 556.24,57.6981 556.5,61.5C 558.216,61.3713 559.883,61.038 561.5,60.5C 561.5,61.5 561.5,62.5 561.5,63.5C 558.939,72.1909 555.606,80.5242 551.5,88.5C 550.833,88.5 550.5,88.8333 550.5,89.5C 524.241,106.011 500.408,103.011 479,80.5C 471.45,68.9663 468.283,56.2997 469.5,42.5C 475.409,41.5447 481.409,41.2114 487.5,41.5 Z"/></g>
<g><path style="opacity:0.622" fill="#8f9093" d="M 19.5,37.5 C 19.6427,39.2624 19.3094,40.9291 18.5,42.5C 26.4723,43.4977 34.4723,43.831 42.5,43.5C 34.0099,44.6569 25.3433,44.8236 16.5,44C 17.4217,41.706 18.4217,39.5394 19.5,37.5 Z"/></g>
<g><path style="opacity:1" fill="#040404" d="M 496.5,80.5 C 495.442,82.8084 494.276,85.1417 493,87.5C 492.362,86.3914 491.862,85.2247 491.5,84C 492.348,81.2305 492.681,78.3971 492.5,75.5C 493.416,72.3449 494.416,69.1782 495.5,66C 492.502,61.5078 491.502,56.6745 492.5,51.5C 494.388,50.0603 496.055,48.3936 497.5,46.5C 499.098,46.6097 500.765,46.943 502.5,47.5C 505.633,52.9253 509.3,57.9253 513.5,62.5C 511.333,64.8302 509.666,67.4968 508.5,70.5C 504.907,70.9259 502.74,72.9259 502,76.5C 499.853,77.6503 498.019,78.9836 496.5,80.5 Z"/></g>
<g><path style="opacity:1" fill="#9c9da0" d="M 14.5,48.5 C 23.1922,48.1686 31.8589,48.502 40.5,49.5C 40.1667,50.1667 39.8333,50.8333 39.5,51.5C 31.1932,52.4979 22.8599,52.8312 14.5,52.5C 14.5,51.1667 14.5,49.8333 14.5,48.5 Z"/></g>
<g><path style="opacity:1" fill="#58595b" d="M 90.5,56.5 C 90.5,56.1667 90.5,55.8333 90.5,55.5C 98.8333,55.5 107.167,55.5 115.5,55.5C 115.737,56.791 115.404,57.791 114.5,58.5C 106.903,56.5332 98.9032,55.8665 90.5,56.5 Z"/></g>
<g><path style="opacity:1" fill="#5c5d5f" d="M 187.5,55.5 C 208.673,55.1694 229.673,55.5027 250.5,56.5C 250.5,57.1667 250.167,57.5 249.5,57.5C 228.598,56.1743 207.598,56.1743 186.5,57.5C 186.328,56.5084 186.662,55.8417 187.5,55.5 Z"/></g>
<g><path style="opacity:0.995" fill="#5c5d5f" d="M 309.5,56.5 C 309.5,56.1667 309.5,55.8333 309.5,55.5C 318.017,55.1739 326.35,55.5073 334.5,56.5C 334.672,57.4916 334.338,58.1583 333.5,58.5C 325.903,56.5332 317.903,55.8665 309.5,56.5 Z"/></g>
<g><path style="opacity:1" fill="#5a5b5d" d="M 338.5,56.5 C 338.5,56.1667 338.5,55.8333 338.5,55.5C 361.5,55.5 384.5,55.5 407.5,55.5C 407.672,56.4916 407.338,57.1583 406.5,57.5C 384.006,56.5025 361.339,56.1692 338.5,56.5 Z"/></g>
<g><path style="opacity:1" fill="#5b5c5e" d="M 433.5,56.5 C 433.5,56.1667 433.5,55.8333 433.5,55.5C 441.833,55.5 450.167,55.5 458.5,55.5C 458.737,56.791 458.404,57.791 457.5,58.5C 449.903,56.5332 441.903,55.8665 433.5,56.5 Z"/></g>
<g><path style="opacity:0.999" fill="#5e5f61" d="M 627.5,56.5 C 627.5,57.1667 627.167,57.5 626.5,57.5C 605.673,56.5027 584.673,56.1694 563.5,56.5C 562.784,56.2169 561.951,55.8836 561,55.5C 560.333,54.1667 560.333,52.8333 561,51.5C 562.167,52.6667 563.333,53.8333 564.5,55C 585.671,55.1681 606.671,55.6681 627.5,56.5 Z"/></g>
<g><path style="opacity:1" fill="#bcbdbf" d="M 12.5,56.5 C 20.5277,56.169 28.5277,56.5023 36.5,57.5C 28.3428,58.8204 20.3428,58.8204 12.5,57.5C 12.5,57.1667 12.5,56.8333 12.5,56.5 Z"/></g>
<g><path style="opacity:0.999" fill="#b7b8ba" d="M 90.5,56.5 C 98.9032,55.8665 106.903,56.5332 114.5,58.5C 114.204,60.403 113.537,62.0697 112.5,63.5C 104.167,63.5 95.8333,63.5 87.5,63.5C 88.2638,60.9823 89.2638,58.649 90.5,56.5 Z"/></g>
<g><path style="opacity:1" fill="#aeafb1" d="M 176.5,55.5 C 179.137,57.4818 180.47,60.1485 180.5,63.5C 164.833,63.5 149.167,63.5 133.5,63.5C 129.039,62.6167 125.705,60.2834 123.5,56.5C 140.992,55.5033 158.659,55.1699 176.5,55.5 Z"/></g>
<g><path style="opacity:0.999" fill="#b9babc" d="M 249.5,57.5 C 246.958,58.6244 244.292,59.4577 241.5,60C 243.881,60.2233 245.547,61.39 246.5,63.5C 225.833,63.5 205.167,63.5 184.5,63.5C 184.595,61.2143 185.262,59.2143 186.5,57.5C 207.598,56.1743 228.598,56.1743 249.5,57.5 Z"/></g>
<g><path style="opacity:0.999" fill="#adaeb0" d="M 260.5,55.5 C 269.017,55.1739 277.35,55.5073 285.5,56.5C 285.233,58.9653 284.566,61.2986 283.5,63.5C 274.983,63.8261 266.65,63.4927 258.5,62.5C 259.167,60.1667 259.833,57.8333 260.5,55.5 Z"/></g>
<g><path style="opacity:0.999" fill="#b8b9bb" d="M 309.5,56.5 C 317.903,55.8665 325.903,56.5332 333.5,58.5C 333.371,60.2161 333.038,61.8828 332.5,63.5C 323.983,63.8261 315.65,63.4927 307.5,62.5C 307.595,60.2143 308.262,58.2143 309.5,56.5 Z"/></g>
<g><path style="opacity:1" fill="#babbbd" d="M 338.5,56.5 C 361.339,56.1692 384.006,56.5025 406.5,57.5C 405.5,60.5 403.5,62.5 400.5,63.5C 379.167,63.5 357.833,63.5 336.5,63.5C 336.767,61.0347 337.434,58.7014 338.5,56.5 Z"/></g>
<g><path style="opacity:0.999" fill="#b7b8ba" d="M 433.5,56.5 C 441.903,55.8665 449.903,56.5332 457.5,58.5C 457.598,60.5529 456.931,62.2196 455.5,63.5C 447.167,63.5 438.833,63.5 430.5,63.5C 431.323,61.0128 432.323,58.6794 433.5,56.5 Z"/></g>
<g><path style="opacity:1" fill="#b9babc" d="M 563.5,56.5 C 584.673,56.1694 605.673,56.5027 626.5,57.5C 623.657,58.7711 620.657,59.6045 617.5,60C 620.264,60.0058 622.264,61.1725 623.5,63.5C 602.833,63.5 582.167,63.5 561.5,63.5C 561.5,62.5 561.5,61.5 561.5,60.5C 562.674,59.4863 563.34,58.153 563.5,56.5 Z"/></g>
<g><path style="opacity:1" fill="#aeafb1" d="M 693.5,55.5 C 696.682,57.1927 698.348,59.8593 698.5,63.5C 682.833,63.5 667.167,63.5 651.5,63.5C 648.738,62.6205 646.071,61.4538 643.5,60C 642.177,59.1841 641.511,58.0174 641.5,56.5C 658.659,55.5033 675.992,55.17 693.5,55.5 Z"/></g>
<g><path style="opacity:0.498" fill="#747577" d="M 12.5,56.5 C 20.6499,55.5073 28.9832,55.1739 37.5,55.5C 37.5,56.8333 37.5,58.1667 37.5,59.5C 28.8078,59.8314 20.1411,59.498 11.5,58.5C 11.6236,57.8933 11.9569,57.56 12.5,57.5C 20.3428,58.8204 28.3428,58.8204 36.5,57.5C 28.5277,56.5023 20.5277,56.169 12.5,56.5 Z"/></g>
<g><path style="opacity:0.936" fill="#b7b8ba" d="M 9.5,63.5 C 18.1731,63.3336 26.8397,63.5002 35.5,64C 35.0426,64.414 34.7093,64.914 34.5,65.5C 25.8525,66.6652 17.1858,66.8319 8.5,66C 9.25244,65.3292 9.58577,64.4959 9.5,63.5 Z"/></g>
<g><path style="opacity:0.929" fill="#010101" d="M 184.5,63.5 C 205.167,63.5 225.833,63.5 246.5,63.5C 247.117,63.6107 247.617,63.944 248,64.5C 248.5,73.4938 248.666,82.4938 248.5,91.5C 239.5,91.5 230.5,91.5 221.5,91.5C 222.111,84.1685 222.278,76.8351 222,69.5C 217.218,68.1977 212.385,68.1977 207.5,69.5C 204.556,76.3896 201.889,83.3896 199.5,90.5C 191.193,91.4979 182.86,91.8312 174.5,91.5C 177.262,81.8758 180.595,72.5425 184.5,63.5 Z"/></g>
<g><path style="opacity:0.948" fill="#010101" d="M 258.5,62.5 C 266.65,63.4927 274.983,63.8261 283.5,63.5C 279.746,71.2848 282.246,74.9515 291,74.5C 299.775,74.8793 305.275,70.8793 307.5,62.5C 315.65,63.4927 323.983,63.8261 332.5,63.5C 324.884,85.4084 309.384,95.075 286,92.5C 277.049,93.3582 268.549,91.8582 260.5,88C 256.511,85.1871 254.844,81.3538 255.5,76.5C 255.583,71.5166 256.583,66.8499 258.5,62.5 Z"/></g>
<g><path style="opacity:0.928" fill="#020202" d="M 336.5,63.5 C 357.833,63.5 379.167,63.5 400.5,63.5C 396.596,66.9739 391.929,68.8073 386.5,69C 377.5,69.3333 368.5,69.6667 359.5,70C 356.833,77 354.167,84 351.5,91C 343.173,91.4997 334.84,91.6664 326.5,91.5C 328.928,81.7554 332.261,72.4221 336.5,63.5 Z"/></g>
<g><path style="opacity:0.941" fill="#010101" d="M 561.5,63.5 C 582.167,63.5 602.833,63.5 623.5,63.5C 624.222,63.9175 624.722,64.5842 625,65.5C 625.333,71.8333 625.667,78.1667 626,84.5C 628.107,80.6194 629.941,76.6194 631.5,72.5C 644.48,72.1496 657.48,71.9829 670.5,72C 663.84,69.6655 657.507,66.8322 651.5,63.5C 667.167,63.5 682.833,63.5 698.5,63.5C 696.804,80.3639 687.471,89.8639 670.5,92C 655.701,93.1849 641.035,92.3516 626.5,89.5C 617.3,91.387 607.966,92.0536 598.5,91.5C 598.797,84.1522 598.964,76.8189 599,69.5C 593.928,68.5286 588.762,68.1953 583.5,68.5C 581.369,76.2269 579.036,83.8935 576.5,91.5C 567.435,92.1364 558.769,91.4698 550.5,89.5C 551.167,89.5 551.5,89.1667 551.5,88.5C 555.606,80.5242 558.939,72.1909 561.5,63.5 Z"/></g>
<g><path style="opacity:0.93" fill="#010101" d="M 87.5,63.5 C 95.8333,63.5 104.167,63.5 112.5,63.5C 109.5,72.8333 106.5,82.1667 103.5,91.5C 94.8078,91.8314 86.1411,91.498 77.5,90.5C 80.8418,81.4715 84.1751,72.4715 87.5,63.5 Z"/></g>
<g><path style="opacity:0.946" fill="#010101" d="M 133.5,63.5 C 149.167,63.5 164.833,63.5 180.5,63.5C 180.396,71.8744 177.396,79.0411 171.5,85C 161.034,91.1278 149.7,93.6278 137.5,92.5C 126.898,93.0326 116.564,91.6993 106.5,88.5C 109.074,82.9393 111.741,77.4393 114.5,72C 127.162,72.1814 139.828,72.1814 152.5,72C 145.856,69.6285 139.523,66.7952 133.5,63.5 Z"/></g>
<g><path style="opacity:0.928" fill="#010101" d="M 430.5,63.5 C 438.833,63.5 447.167,63.5 455.5,63.5C 452.5,72.8333 449.5,82.1667 446.5,91.5C 437.808,91.8314 429.141,91.498 420.5,90.5C 423.839,81.4826 427.172,72.4826 430.5,63.5 Z"/></g>
<g><path style="opacity:0.373" fill="#727375" d="M 31.5,72.5 C 23.2651,71.1862 14.9318,71.1862 6.5,72.5C 10.4451,71.1745 14.7784,70.5079 19.5,70.5C 23.8333,70.8333 28.1667,71.1667 32.5,71.5C 32.3764,72.1067 32.0431,72.44 31.5,72.5 Z"/></g>
<g><path style="opacity:0.329" fill="#6e6f72" d="M 31.5,73.5 C 36.3054,74.4872 41.3054,74.8205 46.5,74.5C 41.3197,75.8147 35.9864,75.8147 30.5,74.5C 30.6236,73.8933 30.9569,73.56 31.5,73.5 Z"/></g>
<g><path style="opacity:1" fill="#141414" d="M 552.5,79.5 C 553.043,79.56 553.376,79.8933 553.5,80.5C 552.145,82.9289 550.478,84.2623 548.5,84.5C 549.612,82.5808 550.946,80.9142 552.5,79.5 Z"/></g>
<g><path style="opacity:0.968" fill="#58595b" d="M 311.5,128.5 C 308.167,128.5 304.833,128.5 301.5,128.5C 294.954,124.652 292.788,118.985 295,111.5C 298.655,104.93 304.155,102.763 311.5,105C 313.909,106.201 315.909,107.867 317.5,110C 313.275,109.078 308.942,108.411 304.5,108C 295.202,113.567 295.202,119.234 304.5,125C 305.833,125.667 307.167,125.667 308.5,125C 310.959,124.03 313.292,122.863 315.5,121.5C 316.167,121.833 316.833,122.167 317.5,122.5C 315.785,124.882 313.785,126.882 311.5,128.5 Z"/></g>
<g><path style="opacity:0.981" fill="#58595b" d="M 404.5,128.5 C 403.167,128.5 401.833,128.5 400.5,128.5C 400.043,126.443 399.043,126.443 397.5,128.5C 394.5,128.5 391.5,128.5 388.5,128.5C 380.476,123.588 378.642,116.921 383,108.5C 389.736,103.221 396.402,103.221 403,108.5C 403.483,109.448 403.649,110.448 403.5,111.5C 400.336,109.559 396.836,108.225 393,107.5C 386.317,108.846 383.651,112.846 385,119.5C 389.249,126.317 394.249,126.984 400,121.5C 400.495,119.527 400.662,117.527 400.5,115.5C 401.833,115.5 403.167,115.5 404.5,115.5C 404.5,119.833 404.5,124.167 404.5,128.5 Z"/></g>
<g><path style="opacity:0.981" fill="#5a5a5d" d="M 429.5,128.5 C 426.5,128.5 423.5,128.5 420.5,128.5C 411.935,122.648 410.602,115.481 416.5,107C 430.594,100.948 437.428,105.448 437,120.5C 435.647,124.35 433.147,127.017 429.5,128.5 Z M 422.5,107.5 C 432.568,107.55 435.902,112.216 432.5,121.5C 426.588,127.068 421.421,126.401 417,119.5C 415.873,114.089 417.707,110.089 422.5,107.5 Z"/></g>
<g><path style="opacity:0.979" fill="#5a5a5d" d="M 477.5,128.5 C 475.833,128.5 474.167,128.5 472.5,128.5C 472.167,127.167 471.833,127.167 471.5,128.5C 469.167,128.5 466.833,128.5 464.5,128.5C 459.611,124.667 459.278,120.333 463.5,115.5C 460.623,106.712 463.623,103.212 472.5,105C 474.229,106.789 474.896,108.956 474.5,111.5C 473.5,111.5 472.5,111.5 471.5,111.5C 470.46,106.606 468.46,106.273 465.5,110.5C 467.384,114.557 469.884,118.223 473,121.5C 474.11,119.963 475.61,119.297 477.5,119.5C 477.528,121.582 476.861,123.416 475.5,125C 476.305,126.113 476.972,127.279 477.5,128.5 Z M 464.5,119.5 C 467.621,120.288 469.288,122.288 469.5,125.5C 465.686,125.349 464.019,123.349 464.5,119.5 Z"/></g>
<g><path style="opacity:0.986" fill="#595a5c" d="M 539.5,128.5 C 536.5,128.5 533.5,128.5 530.5,128.5C 521.115,122.265 520.115,114.765 527.5,106C 542.555,101.758 548.722,107.258 546,122.5C 544.506,125.314 542.34,127.314 539.5,128.5 Z M 532.5,107.5 C 541.77,107.423 545.27,111.756 543,120.5C 537.71,127.017 532.376,127.017 527,120.5C 525.099,114.343 526.932,110.01 532.5,107.5 Z"/></g>
<g><path style="opacity:0.972" fill="#5a5a5d" d="M 578.5,128.5 C 577.5,128.5 576.5,128.5 575.5,128.5C 575.043,126.443 574.043,126.443 572.5,128.5C 569.167,128.5 565.833,128.5 562.5,128.5C 555.239,123.404 553.572,116.738 557.5,108.5C 562.601,104.254 568.268,103.421 574.5,106C 576.019,107.351 577.352,108.851 578.5,110.5C 577.277,111.614 575.944,111.781 574.5,111C 569.484,106.195 564.651,106.362 560,111.5C 556.986,117.972 558.819,122.472 565.5,125C 572.549,125.654 575.882,122.488 575.5,115.5C 576.5,115.5 577.5,115.5 578.5,115.5C 578.5,119.833 578.5,124.167 578.5,128.5 Z"/></g>
<g><path style="opacity:0.979" fill="#58595b" d="M 613.5,128.5 C 610.5,128.5 607.5,128.5 604.5,128.5C 602.567,126.727 601.234,124.561 600.5,122C 601.833,121.333 603.167,121.333 604.5,122C 607.764,126.746 610.764,126.58 613.5,121.5C 610.344,118.716 606.844,116.382 603,114.5C 600.655,106.177 603.821,103.01 612.5,105C 614.671,106.174 615.671,108.007 615.5,110.5C 613.027,110.201 610.86,109.201 609,107.5C 605.827,108.342 604.994,110.175 606.5,113C 616.919,114.7 619.253,119.867 613.5,128.5 Z"/></g>
<g><path style="opacity:0.976" fill="#58595b" d="M 680.5,128.5 C 677.167,128.5 673.833,128.5 670.5,128.5C 660.79,121.753 660.123,114.253 668.5,106C 672.375,104.48 676.375,104.146 680.5,105C 682.64,105.973 684.307,107.473 685.5,109.5C 684.833,109.833 684.167,110.167 683.5,110.5C 679.409,107.579 675.076,107.079 670.5,109C 665.167,114 665.167,119 670.5,124C 674.725,126.36 678.391,125.693 681.5,122C 683.167,121.333 684.833,121.333 686.5,122C 684.973,124.69 682.973,126.857 680.5,128.5 Z"/></g>
<g><path style="opacity:0.976" fill="#58595b" d="M 705.5,128.5 C 702.833,128.5 700.167,128.5 697.5,128.5C 695.8,126.79 694.467,124.79 693.5,122.5C 694.167,122.167 694.833,121.833 695.5,121.5C 697.257,123.409 699.424,124.742 702,125.5C 705.345,124.281 706.179,122.114 704.5,119C 700.793,118.064 697.626,116.231 695,113.5C 694.179,105.668 697.679,102.835 705.5,105C 707.607,106.264 708.607,108.097 708.5,110.5C 705.761,110.293 703.427,109.293 701.5,107.5C 698.483,108.38 697.816,110.214 699.5,113C 703.45,113.597 706.616,115.43 709,118.5C 710.244,122.809 709.077,126.142 705.5,128.5 Z"/></g>
<g><path style="opacity:0.989" fill="#59595c" d="M 348.5,128.5 C 347.167,128.5 345.833,128.5 344.5,128.5C 343.213,125.594 342.213,122.594 341.5,119.5C 338.102,119.18 334.768,119.513 331.5,120.5C 330.153,123.193 328.82,125.86 327.5,128.5C 326.5,128.5 325.5,128.5 324.5,128.5C 327.095,120.637 330.262,112.97 334,105.5C 335.494,104.253 336.994,104.253 338.5,105.5C 342.121,113.071 345.454,120.738 348.5,128.5 Z M 335.5,109.5 C 336.725,110.937 337.725,112.604 338.5,114.5C 336.926,115.631 335.259,115.798 333.5,115C 334.861,113.416 335.528,111.582 335.5,109.5 Z"/></g>
<g><path style="opacity:0.994" fill="#5d5e60" d="M 374.5,128.5 C 372.833,128.5 371.167,128.5 369.5,128.5C 367.348,124.006 364.015,121.006 359.5,119.5C 359.5,122.5 359.5,125.5 359.5,128.5C 358.5,128.5 357.5,128.5 356.5,128.5C 356.5,120.5 356.5,112.5 356.5,104.5C 360.514,104.334 364.514,104.501 368.5,105C 373.719,109.942 373.719,114.942 368.5,120C 370.705,122.702 372.705,125.536 374.5,128.5 Z M 359.5,107.5 C 362.602,107.154 365.435,107.821 368,109.5C 368.743,111.441 368.576,113.274 367.5,115C 364.986,116.252 362.32,116.752 359.5,116.5C 359.5,113.5 359.5,110.5 359.5,107.5 Z"/></g>
<g><path style="opacity:0.981" fill="#5c5c5f" d="M 516.5,128.5 C 511.833,128.5 507.167,128.5 502.5,128.5C 502.5,120.5 502.5,112.5 502.5,104.5C 503.833,104.5 505.167,104.5 506.5,104.5C 506.5,111.5 506.5,118.5 506.5,125.5C 509.833,125.5 513.167,125.5 516.5,125.5C 516.5,126.5 516.5,127.5 516.5,128.5 Z"/></g>
<g><path style="opacity:1" fill="#636467" d="M 591.5,128.5 C 590.5,128.5 589.5,128.5 588.5,128.5C 588.5,120.5 588.5,112.5 588.5,104.5C 589.5,104.5 590.5,104.5 591.5,104.5C 591.5,112.5 591.5,120.5 591.5,128.5 Z"/></g>
<g><path style="opacity:1" fill="#595a5c" d="M 634.5,128.5 C 633.167,128.5 631.833,128.5 630.5,128.5C 630.5,121.5 630.5,114.5 630.5,107.5C 628.167,107.5 625.833,107.5 623.5,107.5C 623.5,106.5 623.5,105.5 623.5,104.5C 629.833,104.5 636.167,104.5 642.5,104.5C 642.5,105.5 642.5,106.5 642.5,107.5C 639.833,107.5 637.167,107.5 634.5,107.5C 634.5,114.5 634.5,121.5 634.5,128.5 Z"/></g>
<g><path style="opacity:0.937" fill="#68696c" d="M 653.5,128.5 C 652.5,128.5 651.5,128.5 650.5,128.5C 650.5,120.5 650.5,112.5 650.5,104.5C 651.5,104.5 652.5,104.5 653.5,104.5C 653.5,112.5 653.5,120.5 653.5,128.5 Z"/></g>
</svg>
