<?xml version="1.0" encoding="UTF-8"?>
<!DOCTYPE svg PUBLIC "-//W3C//DTD SVG 1.1//EN" "http://www.w3.org/Graphics/SVG/1.1/DTD/svg11.dtd">
<svg xmlns="http://www.w3.org/2000/svg" version="1.1" width="711px" height="128px" style="shape-rendering:geometricPrecision; text-rendering:geometricPrecision; image-rendering:optimizeQuality; fill-rule:evenodd; clip-rule:evenodd" xmlns:xlink="http://www.w3.org/1999/xlink">
<g><path style="opacity:0.926" fill="#1371b7" d="M 514.5,-0.5 C 517.167,-0.5 519.833,-0.5 522.5,-0.5C 536.567,1.45282 548.4,7.78615 558,18.5C 561.238,22.3088 563.404,26.6421 564.5,31.5C 563.219,28.5985 560.885,27.0985 557.5,27C 558.167,26.6667 558.833,26.3333 559.5,26C 555.651,21.5342 551.651,21.3675 547.5,25.5C 545.726,22.5835 543.393,20.0835 540.5,18C 539.552,17.5172 538.552,17.3505 537.5,17.5C 538.903,16.0688 540.569,14.9022 542.5,14C 536.253,11.129 529.753,8.96234 523,7.5C 521.5,7.66667 520,7.83333 518.5,8C 521.3,9.23186 524.3,9.89853 527.5,10C 526.748,10.6708 526.414,11.5041 526.5,12.5C 524.565,11.8505 522.565,11.5172 520.5,11.5C 518.716,10.2801 517.05,10.2801 515.5,11.5C 514.833,11.5 514.167,11.5 513.5,11.5C 507.173,10.6604 500.84,8.99376 494.5,6.5C 500.661,2.6292 507.328,0.295868 514.5,-0.5 Z"/></g>
<g><path style="opacity:1" fill="#262463" d="M 494.5,6.5 C 500.84,8.99376 507.173,10.6604 513.5,11.5C 513.611,12.1174 513.944,12.6174 514.5,13C 511.937,14.0793 509.271,14.5793 506.5,14.5C 506.608,16.7834 507.441,18.7834 509,20.5C 510.989,18.1606 513.489,16.8273 516.5,16.5C 517.865,18.5909 518.532,20.9242 518.5,23.5C 516.679,24.1174 514.679,24.284 512.5,24C 512.957,24.414 513.291,24.914 513.5,25.5C 507.185,27.2298 502.018,30.5631 498,35.5C 497.51,34.2068 497.343,32.8734 497.5,31.5C 495.05,31.298 492.717,31.6314 490.5,32.5C 490.918,29.9104 491.918,27.5771 493.5,25.5C 489.893,24.5108 486.226,24.1774 482.5,24.5C 483.264,21.213 485.097,18.5463 488,16.5C 488.977,14.26 489.477,11.9267 489.5,9.5C 490.899,8.11028 492.566,7.11028 494.5,6.5 Z"/></g>
<g><path style="opacity:1" fill="#262665" d="M 537.5,17.5 C 533.839,18.0983 530.172,19.0983 526.5,20.5C 526.128,17.6303 526.128,14.9636 526.5,12.5C 526.414,11.5041 526.748,10.6708 527.5,10C 524.3,9.89853 521.3,9.23186 518.5,8C 520,7.83333 521.5,7.66667 523,7.5C 529.753,8.96234 536.253,11.129 542.5,14C 540.569,14.9022 538.903,16.0688 537.5,17.5 Z"/></g>
<g><path style="opacity:0.834" fill="#1371b7" d="M 489.5,9.5 C 489.477,11.9267 488.977,14.26 488,16.5C 485.097,18.5463 483.264,21.213 482.5,24.5C 480.167,24.5 477.833,24.5 475.5,24.5C 478.783,18.2166 483.45,13.2166 489.5,9.5 Z"/></g>
<g><path style="opacity:1" fill="#27306b" d="M 515.5,11.5 C 517.05,10.2801 518.716,10.2801 520.5,11.5C 521.985,15.6713 520.652,17.338 516.5,16.5C 519.446,14.0775 519.113,12.4109 515.5,11.5 Z"/></g>
<g><path style="opacity:1" fill="#2693bc" d="M 520.5,11.5 C 522.565,11.5172 524.565,11.8505 526.5,12.5C 526.128,14.9636 526.128,17.6303 526.5,20.5C 530.172,19.0983 533.839,18.0983 537.5,17.5C 538.552,17.3505 539.552,17.5172 540.5,18C 543.393,20.0835 545.726,22.5835 547.5,25.5C 545.236,27.212 545.736,28.5453 549,29.5C 550.221,28.7282 551.221,27.7282 552,26.5C 554.113,28.2711 553.947,29.7711 551.5,31C 549.473,31.4978 547.473,31.3311 545.5,30.5C 543.013,30.7587 541.013,31.7587 539.5,33.5C 534.469,26.1521 527.469,22.8188 518.5,23.5C 518.532,20.9242 517.865,18.5909 516.5,16.5C 520.652,17.338 521.985,15.6713 520.5,11.5 Z"/></g>
<g><path style="opacity:1" fill="#278eb7" d="M 513.5,11.5 C 514.167,11.5 514.833,11.5 515.5,11.5C 519.113,12.4109 519.446,14.0775 516.5,16.5C 513.489,16.8273 510.989,18.1606 509,20.5C 507.441,18.7834 506.608,16.7834 506.5,14.5C 509.271,14.5793 511.937,14.0793 514.5,13C 513.944,12.6174 513.611,12.1174 513.5,11.5 Z"/></g>
<g><path style="opacity:0.942" fill="#000000" d="M 176.5,55.5 C 158.5,55.5 140.5,55.5 122.5,55.5C 119.747,40.5411 125.747,30.3744 140.5,25C 157.585,21.4889 174.585,21.8223 191.5,26C 192.022,26.5613 192.355,27.228 192.5,28C 190.067,32.6939 188.067,37.5272 186.5,42.5C 174.162,42.3335 161.829,42.5001 149.5,43C 155.5,45.3333 161.5,47.6667 167.5,50C 170.898,51.3571 173.898,53.1904 176.5,55.5 Z"/></g>
<g><path style="opacity:0.945" fill="#000000" d="M 710.5,26.5 C 710.5,26.8333 710.5,27.1667 710.5,27.5C 708.213,32.0748 705.879,36.7415 703.5,41.5C 691.18,42.3326 678.847,42.8326 666.5,43C 673.578,45.4703 680.578,48.137 687.5,51C 689.747,52.2775 691.747,53.7775 693.5,55.5C 675.659,55.1699 657.992,55.5033 640.5,56.5C 637.029,38.7445 644.362,27.9112 662.5,24C 678.723,21.5263 694.723,22.3596 710.5,26.5 Z"/></g>
<g><path style="opacity:0.958" fill="#fbb03f" d="M -0.5,90.5 C -0.5,90.1667 -0.5,89.8333 -0.5,89.5C 1.80555,83.5993 4.13889,77.5993 6.5,71.5C 15.1475,70.3348 23.8142,70.1681 32.5,71C 31.6634,72.0113 31.33,73.1779 31.5,74.5C 44.7206,77.2777 53.8873,72.611 59,60.5C 60.7134,55.6954 62.2134,50.8621 63.5,46C 62.7433,44.4878 61.7433,43.1545 60.5,42C 54.9198,40.4826 49.2531,40.1492 43.5,41C 42.6634,42.0113 42.33,43.1779 42.5,44.5C 33.8078,44.8314 25.1411,44.498 16.5,43.5C 18.6285,38.6152 20.4618,33.6152 22,28.5C 22.5743,26.508 23.741,25.008 25.5,24C 41.8333,23.3333 58.1667,23.3333 74.5,24C 88.8545,26.1895 94.0211,34.3562 90,48.5C 82.7375,82.2294 61.9041,96.5627 27.5,91.5C 18.1491,91.4088 8.81573,91.0755 -0.5,90.5 Z"/></g>
<g><path style="opacity:0.963" fill="#000000" d="M 250.5,56.5 C 229.34,55.5027 208.007,55.1694 186.5,55.5C 190.203,44.8899 194.203,34.3899 198.5,24C 215.167,23.3333 231.833,23.3333 248.5,24C 262.253,25.4438 266.42,32.6105 261,45.5C 258.672,50.3273 255.172,53.994 250.5,56.5 Z M 217.5,40.5 C 222.844,40.334 228.177,40.5006 233.5,41C 235.989,43.7929 235.655,46.4596 232.5,49C 226.235,50.4842 219.902,50.8176 213.5,50C 214.739,46.7806 216.072,43.6139 217.5,40.5 Z"/></g>
<g><path style="opacity:0.971" fill="#000000" d="M 475.5,24.5 C 477.833,24.5 480.167,24.5 482.5,24.5C 486.226,24.1774 489.893,24.5108 493.5,25.5C 491.918,27.5771 490.918,29.9104 490.5,32.5C 489.699,34.0418 489.366,35.7085 489.5,37.5C 488.833,37.5 488.5,37.8333 488.5,38.5C 487.596,39.209 487.263,40.209 487.5,41.5C 481.31,41.1771 475.31,41.5104 469.5,42.5C 467.167,42.5 464.833,42.5 462.5,42.5C 461.567,46.9645 460.234,51.2979 458.5,55.5C 449.833,55.5 441.167,55.5 432.5,55.5C 434.261,51.3851 435.928,47.2184 437.5,43C 429.173,42.5003 420.84,42.3336 412.5,42.5C 411.67,47.1596 410.003,51.493 407.5,55.5C 384.5,55.5 361.5,55.5 338.5,55.5C 341.811,44.7338 345.811,34.2338 350.5,24C 368.878,23.0676 387.211,23.4009 405.5,25C 412.761,27.4961 415.594,32.6627 414,40.5C 415.538,35.3848 417.372,30.3848 419.5,25.5C 438.155,24.5004 456.821,24.1671 475.5,24.5 Z M 369.5,40.5 C 374.844,40.334 380.177,40.5006 385.5,41C 387.25,47.154 384.917,50.8207 378.5,52C 374.129,52.8275 369.795,52.6609 365.5,51.5C 366.842,47.8049 368.175,44.1382 369.5,40.5 Z"/></g>
<g><path style="opacity:1" fill="#159ec4" d="M 539.5,33.5 C 538.817,35.1765 537.483,35.8432 535.5,35.5C 535.5,36.8333 535.5,38.1667 535.5,39.5C 538.28,39.1931 540.78,38.1931 543,36.5C 544.221,37.2718 545.221,38.2718 546,39.5C 546.333,38.8333 546.667,38.1667 547,37.5C 548.117,38.9494 548.784,40.6161 549,42.5C 550.813,41.3909 551.646,42.0576 551.5,44.5C 552.5,44.5 553.5,44.5 554.5,44.5C 554.5,45.5 554.5,46.5 554.5,47.5C 550.954,47.4411 547.621,46.6077 544.5,45C 543.663,43.9887 543.33,42.8221 543.5,41.5C 535.987,39.005 530.487,41.3384 527,48.5C 526.333,51.5 526.333,54.5 527,57.5C 530,58.8333 533,60.1667 536,61.5C 537.022,66.1289 536.522,70.4623 534.5,74.5C 533.679,77.6414 533.179,80.9748 533,84.5C 521.666,88.7453 510.499,88.2453 499.5,83C 497.937,82.2411 496.937,81.0744 496.5,79.5C 500.498,76.664 504.331,73.664 508,70.5C 509.518,67.4637 511.018,64.4637 512.5,61.5C 511.678,59.3132 510.178,57.6466 508,56.5C 506.554,50.9478 503.22,46.9478 498,44.5C 495.926,46.3425 494.093,48.3425 492.5,50.5C 491.549,49.0813 491.216,47.4147 491.5,45.5C 492.117,45.6107 492.617,45.944 493,46.5C 493.127,43.3959 493.293,40.3959 493.5,37.5C 492.443,37.0941 491.109,37.0941 489.5,37.5C 489.366,35.7085 489.699,34.0418 490.5,32.5C 492.717,31.6314 495.05,31.298 497.5,31.5C 497.343,32.8734 497.51,34.2068 498,35.5C 502.018,30.5631 507.185,27.2298 513.5,25.5C 513.291,24.914 512.957,24.414 512.5,24C 514.679,24.284 516.679,24.1174 518.5,23.5C 527.469,22.8188 534.469,26.1521 539.5,33.5 Z"/></g>
<g><path style="opacity:1" fill="#262463" d="M 564.5,31.5 C 565.902,36.3844 566.569,41.3844 566.5,46.5C 565.346,49.4518 564.346,52.4518 563.5,55.5C 563.5,55.8333 563.5,56.1667 563.5,56.5C 562.326,57.5137 561.66,58.847 561.5,60.5C 559.5,60.8333 557.5,61.1667 555.5,61.5C 555.487,57.5931 554.653,53.9264 553,50.5C 552.563,54.6227 553.063,58.6227 554.5,62.5C 556.103,62.3118 557.437,62.8118 558.5,64C 555.963,66.872 553.13,69.372 550,71.5C 549.71,73.9519 549.044,76.2852 548,78.5C 545.357,79.9362 543.523,82.1028 542.5,85C 540.231,87.0229 537.564,87.8563 534.5,87.5C 534.5,83.1667 534.5,78.8333 534.5,74.5C 536.522,70.4623 537.022,66.1289 536,61.5C 533,60.1667 530,58.8333 527,57.5C 526.333,54.5 526.333,51.5 527,48.5C 530.487,41.3384 535.987,39.005 543.5,41.5C 543.33,42.8221 543.663,43.9887 544.5,45C 547.621,46.6077 550.954,47.4411 554.5,47.5C 554.5,46.5 554.5,45.5 554.5,44.5C 553.5,44.5 552.5,44.5 551.5,44.5C 551.646,42.0576 550.813,41.3909 549,42.5C 548.784,40.6161 548.117,38.9494 547,37.5C 546.667,38.1667 546.333,38.8333 546,39.5C 545.221,38.2718 544.221,37.2718 543,36.5C 540.78,38.1931 538.28,39.1931 535.5,39.5C 535.5,38.1667 535.5,36.8333 535.5,35.5C 537.483,35.8432 538.817,35.1765 539.5,33.5C 541.013,31.7587 543.013,30.7587 545.5,30.5C 547.473,31.3311 549.473,31.4978 551.5,31C 553.947,29.7711 554.113,28.2711 552,26.5C 551.221,27.7282 550.221,28.7282 549,29.5C 545.736,28.5453 545.236,27.212 547.5,25.5C 551.651,21.3675 555.651,21.5342 559.5,26C 558.833,26.3333 558.167,26.6667 557.5,27C 560.885,27.0985 563.219,28.5985 564.5,31.5 Z"/></g>
<g><path style="opacity:0.965" fill="#000000" d="M 627.5,55.5 C 606.167,55.5 584.833,55.5 563.5,55.5C 564.346,52.4518 565.346,49.4518 566.5,46.5C 567.451,45.0813 567.784,43.4147 567.5,41.5C 569.876,35.5425 572.542,29.7092 575.5,24C 592.167,23.3333 608.833,23.3333 625.5,24C 639.965,27.1156 643.465,35.2823 636,48.5C 634.195,52.1429 631.362,54.4763 627.5,55.5 Z M 593.5,40.5 C 599.176,40.3339 604.843,40.5006 610.5,41C 612.698,44.0478 612.032,46.7144 608.5,49C 602.593,50.3608 596.593,50.8608 590.5,50.5C 591.492,47.1771 592.492,43.8437 593.5,40.5 Z"/></g>
<g><path style="opacity:0.96" fill="#000000" d="M 115.5,55.5 C 107.167,55.5 98.8333,55.5 90.5,55.5C 93.8333,45.1667 97.1667,34.8333 100.5,24.5C 109.192,24.1686 117.859,24.502 126.5,25.5C 122.825,35.5285 119.158,45.5285 115.5,55.5 Z"/></g>
<g><path style="opacity:0.96" fill="#000000" d="M 285.5,55.5 C 277.167,55.5 268.833,55.5 260.5,55.5C 263.894,45.4858 267.394,35.4858 271,25.5C 279.755,24.3503 288.588,24.1837 297.5,25C 293.379,35.2097 289.379,45.3764 285.5,55.5 Z"/></g>
<g><path style="opacity:0.961" fill="#000000" d="M 334.5,55.5 C 326.167,55.5 317.833,55.5 309.5,55.5C 312.472,45.0851 316.138,34.9184 320.5,25C 328.827,24.5003 337.16,24.3336 345.5,24.5C 342.116,34.9343 338.449,45.2676 334.5,55.5 Z"/></g>
<g><path style="opacity:1" fill="#272e69" d="M 491.5,45.5 C 491.312,42.7939 490.312,40.4605 488.5,38.5C 488.5,37.8333 488.833,37.5 489.5,37.5C 491.109,37.0941 492.443,37.0941 493.5,37.5C 493.293,40.3959 493.127,43.3959 493,46.5C 492.617,45.944 492.117,45.6107 491.5,45.5 Z"/></g>
<g><path style="opacity:0.662" fill="#2571b1" d="M 564.5,31.5 C 566.277,34.5046 567.277,37.8379 567.5,41.5C 567.784,43.4147 567.451,45.0813 566.5,46.5C 566.569,41.3844 565.902,36.3844 564.5,31.5 Z"/></g>
<g><path style="opacity:1" fill="#2d91b9" d="M 488.5,38.5 C 490.312,40.4605 491.312,42.7939 491.5,45.5C 491.216,47.4147 491.549,49.0813 492.5,50.5C 490.831,55.815 491.498,60.815 494.5,65.5C 493.179,69.1078 492.179,72.7745 491.5,76.5C 482.664,66.989 478.997,55.6556 480.5,42.5C 476.833,42.5 473.167,42.5 469.5,42.5C 475.31,41.5104 481.31,41.1771 487.5,41.5C 487.263,40.209 487.596,39.209 488.5,38.5 Z"/></g>
<g><path style="opacity:0.951" fill="#1374b9" d="M 469.5,42.5 C 473.167,42.5 476.833,42.5 480.5,42.5C 478.997,55.6556 482.664,66.989 491.5,76.5C 491.085,80.3751 491.585,84.0418 493,87.5C 493.738,84.4985 494.904,81.8318 496.5,79.5C 496.937,81.0744 497.937,82.2411 499.5,83C 510.499,88.2453 521.666,88.7453 533,84.5C 533.179,80.9748 533.679,77.6414 534.5,74.5C 534.5,78.8333 534.5,83.1667 534.5,87.5C 537.564,87.8563 540.231,87.0229 542.5,85C 543.523,82.1028 545.357,79.9362 548,78.5C 549.044,76.2852 549.71,73.9519 550,71.5C 553.13,69.372 555.963,66.872 558.5,64C 557.437,62.8118 556.103,62.3118 554.5,62.5C 553.063,58.6227 552.563,54.6227 553,50.5C 554.653,53.9264 555.487,57.5931 555.5,61.5C 557.5,61.1667 559.5,60.8333 561.5,60.5C 561.5,60.8333 561.5,61.1667 561.5,61.5C 560.662,61.8417 560.328,62.5084 560.5,63.5C 557.51,71.4665 554.51,79.4665 551.5,87.5C 550.833,87.5 550.5,87.8333 550.5,88.5C 532.463,101.285 513.463,102.785 493.5,93C 475.055,81.1776 467.055,64.3443 469.5,42.5 Z"/></g>
<g><path style="opacity:1" fill="#262463" d="M 496.5,79.5 C 494.904,81.8318 493.738,84.4985 493,87.5C 491.585,84.0418 491.085,80.3751 491.5,76.5C 492.179,72.7745 493.179,69.1078 494.5,65.5C 491.498,60.815 490.831,55.815 492.5,50.5C 494.093,48.3425 495.926,46.3425 498,44.5C 503.22,46.9478 506.554,50.9478 508,56.5C 510.178,57.6466 511.678,59.3132 512.5,61.5C 511.018,64.4637 509.518,67.4637 508,70.5C 504.331,73.664 500.498,76.664 496.5,79.5 Z"/></g>
<g><path style="opacity:0.727" fill="#fbb03f" d="M 15.5,47.5 C 23.8333,47.5 32.1667,47.5 40.5,47.5C 40.67,48.8221 40.3366,49.9887 39.5,51C 31.1733,51.4997 22.84,51.6664 14.5,51.5C 14.4326,50.0413 14.7659,48.7079 15.5,47.5 Z"/></g>
<g><path style="opacity:0.883" fill="#fbb03f" d="M 12.5,55.5 C 20.8333,55.5 29.1667,55.5 37.5,55.5C 37.5,56.5 37.5,57.5 37.5,58.5C 28.8078,58.8314 20.1411,58.498 11.5,57.5C 11.8627,56.8165 12.1961,56.1499 12.5,55.5 Z"/></g>
<g><path style="opacity:1" fill="#c29759" d="M 90.5,55.5 C 98.8333,55.5 107.167,55.5 115.5,55.5C 115.5,56.1667 115.167,56.5 114.5,56.5C 106.082,56.1981 97.7483,56.5314 89.5,57.5C 89.3284,56.5084 89.6618,55.8417 90.5,55.5 Z"/></g>
<g><path style="opacity:1" fill="#c39859" d="M 122.5,55.5 C 140.5,55.5 158.5,55.5 176.5,55.5C 177.167,55.5 177.5,55.8333 177.5,56.5C 159.659,56.1699 141.992,56.5033 124.5,57.5C 123.5,57.1667 122.833,56.5 122.5,55.5 Z"/></g>
<g><path style="opacity:1" fill="#c49959" d="M 186.5,56.5 C 186.5,56.1667 186.5,55.8333 186.5,55.5C 208.007,55.1694 229.34,55.5027 250.5,56.5C 249.609,57.1098 248.609,57.4431 247.5,57.5C 227.34,56.5028 207.007,56.1695 186.5,56.5 Z"/></g>
<g><path style="opacity:1" fill="#c29859" d="M 260.5,56.5 C 260.5,56.1667 260.5,55.8333 260.5,55.5C 268.833,55.5 277.167,55.5 285.5,55.5C 285.737,56.791 285.404,57.791 284.5,58.5C 276.903,56.5332 268.903,55.8665 260.5,56.5 Z"/></g>
<g><path style="opacity:1" fill="#c19759" d="M 309.5,55.5 C 317.833,55.5 326.167,55.5 334.5,55.5C 334.672,56.4916 334.338,57.1583 333.5,57.5C 325.265,56.1862 316.932,56.1862 308.5,57.5C 308.328,56.5084 308.662,55.8417 309.5,55.5 Z"/></g>
<g><path style="opacity:1" fill="#c49859" d="M 338.5,56.5 C 338.5,56.1667 338.5,55.8333 338.5,55.5C 361.5,55.5 384.5,55.5 407.5,55.5C 407.167,56.5 406.5,57.1667 405.5,57.5C 383.34,56.5026 361.006,56.1692 338.5,56.5 Z"/></g>
<g><path style="opacity:1" fill="#c19759" d="M 432.5,55.5 C 441.167,55.5 449.833,55.5 458.5,55.5C 458.011,56.9952 457.345,58.3285 456.5,59.5C 456.5,58.5 456.5,57.5 456.5,56.5C 448.414,56.1995 440.414,56.5328 432.5,57.5C 432.5,56.8333 432.5,56.1667 432.5,55.5 Z"/></g>
<g><path style="opacity:1" fill="#c49958" d="M 563.5,56.5 C 563.5,56.1667 563.5,55.8333 563.5,55.5C 584.833,55.5 606.167,55.5 627.5,55.5C 626.486,56.6737 625.153,57.3404 623.5,57.5C 603.674,56.5029 583.674,56.1695 563.5,56.5 Z"/></g>
<g><path style="opacity:1" fill="#c49959" d="M 693.5,55.5 C 694.167,55.5 694.5,55.8333 694.5,56.5C 676.659,56.1699 658.992,56.5033 641.5,57.5C 640.833,57.5 640.5,57.1667 640.5,56.5C 657.992,55.5033 675.659,55.1699 693.5,55.5 Z"/></g>
<g><path style="opacity:1" fill="#f7ae41" d="M 114.5,56.5 C 114.405,58.7857 113.738,60.7857 112.5,62.5C 104.097,63.1335 96.0968,62.4668 88.5,60.5C 88.2627,59.209 88.596,58.209 89.5,57.5C 97.7483,56.5314 106.082,56.1981 114.5,56.5 Z"/></g>
<g><path style="opacity:1" fill="#f9ae41" d="M 177.5,56.5 C 178.906,56.9731 179.573,57.9731 179.5,59.5C 179.5,60.5 179.5,61.5 179.5,62.5C 163.833,62.5 148.167,62.5 132.5,62.5C 129.151,61.8305 126.484,60.1639 124.5,57.5C 141.992,56.5033 159.659,56.1699 177.5,56.5 Z"/></g>
<g><path style="opacity:1" fill="#f8ae41" d="M 186.5,56.5 C 207.007,56.1695 227.34,56.5028 247.5,57.5C 246.391,58.29 245.058,58.79 243.5,59C 242.262,59.69 242.262,60.19 243.5,60.5C 243.611,61.1174 243.944,61.6174 244.5,62C 224.503,62.5 204.503,62.6666 184.5,62.5C 184.595,60.2143 185.262,58.2143 186.5,56.5 Z"/></g>
<g><path style="opacity:1" fill="#f8ae41" d="M 260.5,56.5 C 268.903,55.8665 276.903,56.5332 284.5,58.5C 284.443,59.609 284.11,60.609 283.5,61.5C 275.068,62.8138 266.735,62.8138 258.5,61.5C 258.402,59.4471 259.069,57.7804 260.5,56.5 Z"/></g>
<g><path style="opacity:1" fill="#f8ae41" d="M 333.5,57.5 C 333.598,59.5529 332.931,61.2196 331.5,62.5C 323.097,63.1335 315.097,62.4668 307.5,60.5C 307.557,59.391 307.89,58.391 308.5,57.5C 316.932,56.1862 325.265,56.1862 333.5,57.5 Z"/></g>
<g><path style="opacity:1" fill="#f9ae41" d="M 338.5,56.5 C 361.006,56.1692 383.34,56.5026 405.5,57.5C 404.833,60.1667 403.167,61.8333 400.5,62.5C 378.993,62.8306 357.66,62.4973 336.5,61.5C 336.796,59.597 337.463,57.9303 338.5,56.5 Z"/></g>
<g><path style="opacity:1" fill="#f9ae41" d="M 456.5,59.5 C 456.737,60.791 456.404,61.791 455.5,62.5C 447.097,63.1335 439.097,62.4668 431.5,60.5C 431.263,59.209 431.596,58.209 432.5,57.5C 440.414,56.5328 448.414,56.1995 456.5,56.5C 456.5,57.5 456.5,58.5 456.5,59.5 Z"/></g>
<g><path style="opacity:1" fill="#faaf40" d="M 563.5,56.5 C 583.674,56.1695 603.674,56.5029 623.5,57.5C 622.432,58.4345 621.099,58.7678 619.5,58.5C 614.167,59.1667 614.167,59.8333 619.5,60.5C 620.492,60.3284 621.158,60.6618 621.5,61.5C 601.5,62.8333 581.5,62.8333 561.5,61.5C 561.5,61.1667 561.5,60.8333 561.5,60.5C 561.66,58.847 562.326,57.5137 563.5,56.5 Z"/></g>
<g><path style="opacity:1" fill="#eda845" d="M 694.5,56.5 C 696.852,58.178 698.186,60.5113 698.5,63.5C 682.833,63.5 667.167,63.5 651.5,63.5C 647.495,62.5023 644.161,60.5023 641.5,57.5C 658.992,56.5033 676.659,56.1699 694.5,56.5 Z"/></g>
<g><path style="opacity:0.612" fill="#b08d5b" d="M 619.5,58.5 C 619.5,59.1667 619.5,59.8333 619.5,60.5C 614.167,59.8333 614.167,59.1667 619.5,58.5 Z"/></g>
<g><path style="opacity:0.72" fill="#fbb03f" d="M 9.5,62.5 C 18.1731,62.3336 26.8397,62.5002 35.5,63C 34.6634,64.0113 34.33,65.1779 34.5,66.5C 25.8078,66.8314 17.1411,66.498 8.5,65.5C 9.12723,64.5832 9.46056,63.5832 9.5,62.5 Z"/></g>
<g><path style="opacity:1" fill="#c29859" d="M 88.5,60.5 C 96.0968,62.4668 104.097,63.1335 112.5,62.5C 112.5,62.8333 112.5,63.1667 112.5,63.5C 104.167,63.5 95.8333,63.5 87.5,63.5C 87.2627,62.209 87.596,61.209 88.5,60.5 Z"/></g>
<g><path style="opacity:1" fill="#c49859" d="M 179.5,59.5 C 180.434,60.5676 180.768,61.901 180.5,63.5C 165.167,63.5 149.833,63.5 134.5,63.5C 133.508,63.6716 132.842,63.3382 132.5,62.5C 148.167,62.5 163.833,62.5 179.5,62.5C 179.5,61.5 179.5,60.5 179.5,59.5 Z"/></g>
<g><path style="opacity:1" fill="#c29859" d="M 243.5,60.5 C 245.027,60.427 246.027,61.0937 246.5,62.5C 225.673,63.4973 204.673,63.8306 183.5,63.5C 183.5,62.8333 183.833,62.5 184.5,62.5C 204.503,62.6666 224.503,62.5 244.5,62C 243.944,61.6174 243.611,61.1174 243.5,60.5 Z"/></g>
<g><path style="opacity:0.954" fill="#000000" d="M 246.5,62.5 C 247.222,62.9175 247.722,63.5842 248,64.5C 248.416,73.1741 248.25,81.8407 247.5,90.5C 238.833,90.5 230.167,90.5 221.5,90.5C 221.669,83.4764 221.836,76.4764 222,69.5C 221.5,69 221,68.5 220.5,68C 215.913,67.2009 211.413,67.3676 207,68.5C 204.192,75.7567 201.692,83.0901 199.5,90.5C 190.827,90.6664 182.16,90.4998 173.5,90C 176.935,81.1937 180.268,72.3604 183.5,63.5C 204.673,63.8306 225.673,63.4973 246.5,62.5 Z"/></g>
<g><path style="opacity:1" fill="#c09659" d="M 258.5,61.5 C 266.735,62.8138 275.068,62.8138 283.5,61.5C 283.672,62.4916 283.338,63.1583 282.5,63.5C 274.167,63.5 265.833,63.5 257.5,63.5C 257.328,62.5084 257.662,61.8417 258.5,61.5 Z"/></g>
<g><path style="opacity:1" fill="#947d5b" d="M 307.5,60.5 C 315.097,62.4668 323.097,63.1335 331.5,62.5C 331.5,62.8333 331.5,63.1667 331.5,63.5C 323.167,63.5 314.833,63.5 306.5,63.5C 306.263,62.209 306.596,61.209 307.5,60.5 Z"/></g>
<g><path style="opacity:1" fill="#937c5b" d="M 336.5,61.5 C 357.66,62.4973 378.993,62.8306 400.5,62.5C 400.5,63.1667 400.167,63.5 399.5,63.5C 378.167,63.5 356.833,63.5 335.5,63.5C 335.328,62.5084 335.662,61.8417 336.5,61.5 Z"/></g>
<g><path style="opacity:1" fill="#957e5b" d="M 431.5,60.5 C 439.097,62.4668 447.097,63.1335 455.5,62.5C 455.5,62.8333 455.5,63.1667 455.5,63.5C 447.167,63.5 438.833,63.5 430.5,63.5C 430.263,62.209 430.596,61.209 431.5,60.5 Z"/></g>
<g><path style="opacity:1" fill="#937c5b" d="M 561.5,61.5 C 581.5,62.8333 601.5,62.8333 621.5,61.5C 622.5,61.8333 623.167,62.5 623.5,63.5C 602.5,63.5 581.5,63.5 560.5,63.5C 560.328,62.5084 560.662,61.8417 561.5,61.5 Z"/></g>
<g><path style="opacity:0.952" fill="#000000" d="M 87.5,63.5 C 95.8333,63.5 104.167,63.5 112.5,63.5C 109.625,72.2541 106.459,80.9207 103,89.5C 94.5592,90.8153 86.0592,90.8153 77.5,89.5C 80.6652,80.6558 83.9986,71.9892 87.5,63.5 Z"/></g>
<g><path style="opacity:0.952" fill="#000000" d="M 134.5,63.5 C 149.833,63.5 165.167,63.5 180.5,63.5C 179.585,77.1668 172.585,86.0001 159.5,90C 146.229,92.8051 132.895,93.1384 119.5,91C 114.882,90.6472 110.548,89.4805 106.5,87.5C 108.64,82.4149 110.973,77.4149 113.5,72.5C 126.154,71.6674 138.82,71.1674 151.5,71C 145.508,68.999 139.842,66.499 134.5,63.5 Z"/></g>
<g><path style="opacity:0.957" fill="#000000" d="M 257.5,63.5 C 265.833,63.5 274.167,63.5 282.5,63.5C 279.72,71.0596 282.387,74.7263 290.5,74.5C 293.898,73.8963 297.231,73.0629 300.5,72C 302.891,69.3629 304.891,66.5296 306.5,63.5C 314.833,63.5 323.167,63.5 331.5,63.5C 327.695,77.1384 319.028,85.9717 305.5,90C 292.167,93.3333 278.833,93.3333 265.5,90C 258.467,87.9679 254.8,83.3012 254.5,76C 255.023,71.6765 256.023,67.5098 257.5,63.5 Z"/></g>
<g><path style="opacity:0.943" fill="#000000" d="M 335.5,63.5 C 356.833,63.5 378.167,63.5 399.5,63.5C 394.49,67.0099 388.823,68.8433 382.5,69C 375.117,69.7985 367.783,69.6318 360.5,68.5C 359.201,69.09 358.368,70.09 358,71.5C 356.112,77.6079 353.945,83.6079 351.5,89.5C 342.853,90.6652 334.186,90.8319 325.5,90C 328.935,81.1937 332.268,72.3604 335.5,63.5 Z"/></g>
<g><path style="opacity:0.952" fill="#000000" d="M 430.5,63.5 C 438.833,63.5 447.167,63.5 455.5,63.5C 452.268,72.3604 448.935,81.1937 445.5,90C 437.173,90.4997 428.84,90.6664 420.5,90.5C 423.066,81.1282 426.399,72.1282 430.5,63.5 Z"/></g>
<g><path style="opacity:0.958" fill="#000000" d="M 560.5,63.5 C 581.5,63.5 602.5,63.5 623.5,63.5C 624.329,70.6552 624.829,77.9885 625,85.5C 626.766,80.8017 628.933,76.3017 631.5,72C 643.833,71.6667 656.167,71.3333 668.5,71C 662.607,68.7677 656.941,66.2677 651.5,63.5C 667.167,63.5 682.833,63.5 698.5,63.5C 697.147,77.3492 689.813,86.1825 676.5,90C 659.191,93.4451 642.024,92.9451 625,88.5C 616.099,90.4555 606.932,91.1222 597.5,90.5C 598.524,83.1567 598.524,75.8234 597.5,68.5C 592.853,67.2209 588.186,67.2209 583.5,68.5C 580.833,75.5 578.167,82.5 575.5,89.5C 571.333,89.8333 567.167,90.1667 563,90.5C 558.443,90.4915 554.276,89.8248 550.5,88.5C 551.167,88.5 551.5,88.1667 551.5,87.5C 554.51,79.4665 557.51,71.4665 560.5,63.5 Z"/></g>
<g><path style="opacity:1" fill="#262b6a" d="M 551.5,78.5 C 552.552,81.4275 551.552,83.7608 548.5,85.5C 548.04,82.7314 549.04,80.3981 551.5,78.5 Z"/></g>
<g><path style="opacity:0.748" fill="#6c6e70" d="M 311.5,127.5 C 308.167,127.5 304.833,127.5 301.5,127.5C 291.978,120.88 291.312,113.38 299.5,105C 306.964,101.836 312.964,103.503 317.5,110C 313.286,108.742 308.953,107.742 304.5,107C 298.822,108.857 296.655,112.691 298,118.5C 299.167,121 301,122.833 303.5,124C 308.336,123.884 313.002,123.218 317.5,122C 315.604,124.068 313.604,125.901 311.5,127.5 Z"/></g>
<g><path style="opacity:0.748" fill="#6c6e70" d="M 347.5,127.5 C 346.5,127.5 345.5,127.5 344.5,127.5C 343.18,124.86 341.847,122.193 340.5,119.5C 337.291,118.213 334.125,118.213 331,119.5C 329.544,122.076 328.377,124.742 327.5,127.5C 326.167,127.5 324.833,127.5 323.5,127.5C 327.03,119.574 330.364,111.574 333.5,103.5C 335.144,103.286 336.644,103.62 338,104.5C 341.738,111.97 344.905,119.637 347.5,127.5 Z M 335.5,108.5 C 336.481,110.396 337.481,112.396 338.5,114.5C 336.579,115.641 334.579,115.808 332.5,115C 333.914,113.007 334.914,110.84 335.5,108.5 Z"/></g>
<g><path style="opacity:0.728" fill="#6c6e70" d="M 373.5,127.5 C 371.833,127.5 370.167,127.5 368.5,127.5C 367.588,125.405 366.421,123.405 365,121.5C 363.736,119.393 361.903,118.393 359.5,118.5C 359.5,121.5 359.5,124.5 359.5,127.5C 358.167,127.5 356.833,127.5 355.5,127.5C 355.5,119.5 355.5,111.5 355.5,103.5C 359.514,103.334 363.514,103.501 367.5,104C 368.416,104.374 369.25,104.874 370,105.5C 372.621,110.729 371.788,115.229 367.5,119C 369.745,121.731 371.745,124.564 373.5,127.5 Z M 359.5,106.5 C 363.639,105.903 366.639,107.403 368.5,111C 368.097,112.473 367.43,113.806 366.5,115C 364.19,115.497 361.857,115.663 359.5,115.5C 359.5,112.5 359.5,109.5 359.5,106.5 Z"/></g>
<g><path style="opacity:0.749" fill="#6c6e70" d="M 403.5,127.5 C 402.5,127.5 401.5,127.5 400.5,127.5C 400.043,125.443 399.043,125.443 397.5,127.5C 394.167,127.5 390.833,127.5 387.5,127.5C 380.478,122.825 378.645,116.491 382,108.5C 389.072,101.894 396.072,101.894 403,108.5C 403.432,109.6 402.932,110.267 401.5,110.5C 398.903,108.406 395.903,107.073 392.5,106.5C 384.277,108.942 382.11,113.942 386,121.5C 394.68,126.742 399.514,124.409 400.5,114.5C 401.5,114.5 402.5,114.5 403.5,114.5C 403.5,118.833 403.5,123.167 403.5,127.5 Z"/></g>
<g><path style="opacity:0.739" fill="#6c6e70" d="M 429.5,127.5 C 426.167,127.5 422.833,127.5 419.5,127.5C 411.504,121.371 410.504,114.205 416.5,106C 425.795,101.009 432.628,103.176 437,112.5C 438.167,119.46 435.667,124.46 429.5,127.5 Z M 422.5,106.5 C 430.491,106.654 433.991,110.654 433,118.5C 429.458,124.876 424.624,126.043 418.5,122C 414.377,115.523 415.71,110.356 422.5,106.5 Z"/></g>
<g><path style="opacity:0.752" fill="#6c6e70" d="M 476.5,127.5 C 475.167,127.5 473.833,127.5 472.5,127.5C 472.167,126.167 471.833,126.167 471.5,127.5C 468.833,127.5 466.167,127.5 463.5,127.5C 461.391,125.878 460.391,123.712 460.5,121C 462.231,115.892 463.064,110.725 463,105.5C 466.943,102.634 470.61,102.968 474,106.5C 474.49,107.793 474.657,109.127 474.5,110.5C 473.167,110.5 471.833,110.5 470.5,110.5C 470.65,106.839 469.15,105.839 466,107.5C 466.02,112.381 467.853,116.547 471.5,120C 472.83,119.923 474.164,119.423 475.5,118.5C 477.496,120.225 477.162,122.058 474.5,124C 475.823,124.816 476.489,125.983 476.5,127.5 Z M 464.5,117.5 C 466.148,119.429 467.815,121.429 469.5,123.5C 464.327,124.652 462.66,122.652 464.5,117.5 Z"/></g>
<g><path style="opacity:0.86" fill="#6c6e70" d="M 516.5,127.5 C 511.833,127.5 507.167,127.5 502.5,127.5C 502.5,119.5 502.5,111.5 502.5,103.5C 503.5,103.5 504.5,103.5 505.5,103.5C 505.5,110.5 505.5,117.5 505.5,124.5C 509.167,124.5 512.833,124.5 516.5,124.5C 516.5,125.5 516.5,126.5 516.5,127.5 Z"/></g>
<g><path style="opacity:0.762" fill="#6c6e70" d="M 539.5,127.5 C 536.167,127.5 532.833,127.5 529.5,127.5C 520.251,120.697 519.584,113.197 527.5,105C 541.295,101.131 547.462,106.298 546,120.5C 544.306,123.358 542.139,125.691 539.5,127.5 Z M 532.5,106.5 C 541.405,107.317 544.572,111.983 542,120.5C 534.006,126.936 528.506,125.27 525.5,115.5C 525.997,111.01 528.331,108.01 532.5,106.5 Z"/></g>
<g><path style="opacity:0.761" fill="#6c6e70" d="M 577.5,127.5 C 576.5,127.5 575.5,127.5 574.5,127.5C 574.043,125.443 573.043,125.443 571.5,127.5C 568.167,127.5 564.833,127.5 561.5,127.5C 554.17,122.246 552.67,115.579 557,107.5C 561.967,103.318 567.467,102.484 573.5,105C 575.019,106.351 576.352,107.851 577.5,109.5C 576.277,110.614 574.944,110.781 573.5,110C 565.917,104.607 560.583,106.44 557.5,115.5C 559.537,123.018 564.204,125.518 571.5,123C 574.125,120.804 575.125,117.97 574.5,114.5C 575.5,114.5 576.5,114.5 577.5,114.5C 577.5,118.833 577.5,123.167 577.5,127.5 Z"/></g>
<g><path style="opacity:0.808" fill="#6c6e70" d="M 591.5,127.5 C 590.5,127.5 589.5,127.5 588.5,127.5C 588.5,119.5 588.5,111.5 588.5,103.5C 589.5,103.5 590.5,103.5 591.5,103.5C 591.5,111.5 591.5,119.5 591.5,127.5 Z"/></g>
<g><path style="opacity:0.728" fill="#6c6e70" d="M 612.5,127.5 C 609.833,127.5 607.167,127.5 604.5,127.5C 601.905,125.986 600.571,123.652 600.5,120.5C 603.374,121.363 606.041,122.697 608.5,124.5C 612.174,123.782 613.174,121.782 611.5,118.5C 608.875,117.236 606.208,116.069 603.5,115C 600.634,111.057 600.968,107.39 604.5,104C 609.572,102.392 613.239,103.892 615.5,108.5C 614.277,109.614 612.944,109.781 611.5,109C 608.908,105.587 606.575,105.753 604.5,109.5C 606.828,112.335 609.828,114.169 613.5,115C 617.666,119.632 617.333,123.798 612.5,127.5 Z"/></g>
<g><path style="opacity:0.809" fill="#6c6e70" d="M 633.5,127.5 C 632.5,127.5 631.5,127.5 630.5,127.5C 630.5,120.5 630.5,113.5 630.5,106.5C 627.833,106.5 625.167,106.5 622.5,106.5C 622.5,105.5 622.5,104.5 622.5,103.5C 628.833,103.5 635.167,103.5 641.5,103.5C 641.5,104.5 641.5,105.5 641.5,106.5C 638.833,106.5 636.167,106.5 633.5,106.5C 633.5,113.5 633.5,120.5 633.5,127.5 Z"/></g>
<g><path style="opacity:0.606" fill="#6c6e70" d="M 653.5,127.5 C 652.167,127.5 650.833,127.5 649.5,127.5C 649.5,119.5 649.5,111.5 649.5,103.5C 650.833,103.5 652.167,103.5 653.5,103.5C 653.5,111.5 653.5,119.5 653.5,127.5 Z"/></g>
<g><path style="opacity:0.756" fill="#6c6e70" d="M 679.5,127.5 C 676.167,127.5 672.833,127.5 669.5,127.5C 662.954,123.652 660.788,117.985 663,110.5C 667.55,103.565 673.717,101.732 681.5,105C 683.019,106.351 684.352,107.851 685.5,109.5C 684.833,109.833 684.167,110.167 683.5,110.5C 681.203,109.351 678.87,108.185 676.5,107C 667.573,107.337 664.406,111.837 667,120.5C 668.214,122.049 669.714,123.215 671.5,124C 676.336,123.884 681.002,123.218 685.5,122C 683.604,124.068 681.604,125.901 679.5,127.5 Z"/></g>
<g><path style="opacity:0.769" fill="#6c6e70" d="M 705.5,127.5 C 702.5,127.5 699.5,127.5 696.5,127.5C 694.15,125.787 693.15,123.453 693.5,120.5C 695.816,121.936 698.316,123.269 701,124.5C 705.634,123.591 706.467,121.425 703.5,118C 698.563,117.214 695.23,114.547 693.5,110C 694.885,104.136 698.551,102.136 704.5,104C 706.607,105.264 707.607,107.097 707.5,109.5C 705.027,109.201 702.86,108.201 701,106.5C 697.822,107.385 696.989,109.218 698.5,112C 702.243,112.951 705.41,114.785 708,117.5C 709.139,121.421 708.305,124.754 705.5,127.5 Z"/></g>
</svg>
