<svg width="34" height="34" viewBox="0 0 34 34" fill="none" xmlns="http://www.w3.org/2000/svg">
<path d="M22.4643 15.1786C24.4762 15.1786 26.1071 13.5476 26.1071 11.5357C26.1071 9.52382 24.4762 7.89286 22.4643 7.89286C20.4524 7.89286 18.8214 9.52382 18.8214 11.5357C18.8214 13.5476 20.4524 15.1786 22.4643 15.1786Z" fill="black"/>
<path d="M11.5357 15.1786C13.5476 15.1786 15.1786 13.5476 15.1786 11.5357C15.1786 9.52382 13.5476 7.89286 11.5357 7.89286C9.52381 7.89286 7.89285 9.52382 7.89285 11.5357C7.89285 13.5476 9.52381 15.1786 11.5357 15.1786Z" fill="black"/>
<path d="M30.7821 17L21.4929 18.8214H12.5679L3.27856 17L5.88928 12.2036C6.55713 11.05 7.77142 10.3214 9.10713 10.3214H25.0143C26.35 10.3214 27.5643 11.05 28.2321 12.2036L30.7821 17Z" fill="black"/>
<path d="M25.5 26.1071C28.8532 26.1071 31.5714 23.3889 31.5714 20.0357C31.5714 16.6826 28.8532 13.9643 25.5 13.9643C22.1468 13.9643 19.4286 16.6826 19.4286 20.0357C19.4286 23.3889 22.1468 26.1071 25.5 26.1071Z" fill="black"/>
<path d="M8.49999 26.1071C11.8532 26.1071 14.5714 23.3889 14.5714 20.0357C14.5714 16.6826 11.8532 13.9643 8.49999 13.9643C5.14683 13.9643 2.42856 16.6826 2.42856 20.0357C2.42856 23.3889 5.14683 26.1071 8.49999 26.1071Z" fill="black"/>
<path d="M17 21.8571C18.6766 21.8571 20.0357 20.498 20.0357 18.8214C20.0357 17.1449 18.6766 15.7857 17 15.7857C15.3234 15.7857 13.9643 17.1449 13.9643 18.8214C13.9643 20.498 15.3234 21.8571 17 21.8571Z" fill="black"/>
<path d="M25.5 24.2857C27.8472 24.2857 29.75 22.3829 29.75 20.0357C29.75 17.6885 27.8472 15.7857 25.5 15.7857C23.1528 15.7857 21.25 17.6885 21.25 20.0357C21.25 22.3829 23.1528 24.2857 25.5 24.2857Z" fill="#262262"/>
<path d="M8.5 24.2857C10.8472 24.2857 12.75 22.3829 12.75 20.0357C12.75 17.6885 10.8472 15.7857 8.5 15.7857C6.15279 15.7857 4.25 17.6885 4.25 20.0357C4.25 22.3829 6.15279 24.2857 8.5 24.2857Z" fill="#262262"/>
<path d="M27.7464 18.6393C27.1393 17.9714 26.35 17.6071 25.5 17.6071C24.65 17.6071 23.8 17.9714 23.2536 18.6393C23.0107 18.8821 23.0714 19.2464 23.3143 19.4893C23.5571 19.7321 23.9214 19.6714 24.1643 19.4286C24.8929 18.6393 26.1679 18.6393 26.8964 19.4286C27.0179 19.55 27.2 19.6107 27.3214 19.6107C27.4429 19.6107 27.625 19.55 27.7464 19.4286C27.9893 19.2464 27.9893 18.8821 27.7464 18.6393ZM8.5 17.6071C7.65 17.6071 6.8 17.9714 6.25357 18.6393C6.01071 18.8821 6.07143 19.2464 6.31429 19.4893C6.55714 19.7321 6.92143 19.6714 7.16429 19.4286C7.89286 18.6393 9.16786 18.6393 9.89643 19.4286C10.0179 19.55 10.2 19.6107 10.3214 19.6107C10.4429 19.6107 10.625 19.55 10.7464 19.4286C10.9893 19.1857 10.9893 18.8214 10.8071 18.5786C10.2 17.9714 9.35 17.6071 8.5 17.6071Z" fill="#00AED6"/>
</svg>
