<svg width="29" height="28" viewBox="0 0 29 28" fill="none" xmlns="http://www.w3.org/2000/svg">
<g clip-path="url(#clip0_0_1)">
<path d="M15.9917 1.87988V0H12.2583V1.87988C5.41146 2.73782 0.125 8.22024 0.125 14.875C0.125 22.1245 6.39222 28 14.125 28C21.8578 28 28.125 22.1245 28.125 14.875C28.125 8.22024 22.8385 2.73782 15.9917 1.87988ZM15.0583 26.2056V24.5H13.1917V26.2056C7.24534 25.7783 2.49479 21.323 2.03909 15.75H3.85833V14H2.03909C2.51848 8.13646 7.75028 3.5 14.125 3.5C20.4997 3.5 25.7315 8.13646 26.211 14H24.3917V15.75H26.211C25.7552 21.323 21.0028 25.7783 15.0583 26.2056ZM13.1735 8.75H12.2583V4.375H13.4487C13.4487 4.375 14.8159 6.80176 15.0875 7.40677V4.375H15.9917V8.75H14.9198C14.9198 8.75 13.3958 6.0293 13.1734 5.5166V5.52344L13.1735 8.75ZM15.8823 15.4014L20.0641 20.4429L14.6865 16.5225C14.0448 16.7156 13.3156 16.5908 12.8052 16.1123C12.2948 15.6338 12.1635 14.9502 12.3677 14.3486L8.18591 9.3071L13.5635 13.2275C14.2052 13.0361 14.9344 13.1592 15.4448 13.6377C15.9552 14.1162 16.0883 14.7998 15.8823 15.4014Z" fill="black"/>
</g>
<defs>
<clipPath id="clip0_0_1">
<rect width="29" height="28" fill="white"/>
</clipPath>
</defs>
</svg>
