<svg width="28" height="28" viewBox="0 0 28 28" fill="none" xmlns="http://www.w3.org/2000/svg">
<g clip-path="url(#clip0_0_1)">
<path d="M15.75 27.4094C14.525 27.4094 13.4969 27.1031 13.4531 27.0812L5.70937 24.6312C5.6 24.5875 5.5125 24.5 5.5125 24.3687V17.7187C5.5125 17.5656 5.64375 17.4562 5.775 17.4562H9.05625C9.23125 17.4562 13.1687 17.4781 14.8094 19.6437H18.5719C19.4906 19.6437 20.2781 20.3437 20.3437 21.2187C20.3656 21.3937 20.3437 21.5469 20.3219 21.7219L25.2 20.0375C25.5062 19.95 25.7687 19.9062 26.0094 19.9062C26.6219 19.9062 27.0375 20.1906 27.2781 20.7594C27.6062 21.5469 27.0375 22.225 26.6 22.4656C24.85 23.4062 19.075 26.4906 17.6312 27.0812C17.1281 27.2781 16.4937 27.4094 15.75 27.4094ZM6.08125 24.1719L13.6281 26.5562C13.6281 26.5562 14.6344 26.8625 15.7719 26.8625C16.4281 26.8625 16.9969 26.775 17.4562 26.5781C18.8781 25.9875 24.6312 22.9031 26.3812 21.9844C26.6 21.8531 27.0156 21.4594 26.8187 20.9781C26.6656 20.6062 26.4469 20.4531 26.0531 20.4531C25.8781 20.4531 25.6594 20.4969 25.4187 20.5625L19.9937 22.4437C19.95 22.4656 19.9062 22.4656 19.8406 22.4437C19.7531 22.4219 19.6656 22.3562 19.6437 22.2906C19.6219 22.225 19.6219 22.1156 19.6656 22.0281C19.8187 21.8094 19.8844 21.5469 19.8625 21.2844C19.8187 20.6719 19.2719 20.2125 18.6375 20.2125H14.7C14.6125 20.2125 14.525 20.1687 14.4812 20.1031C13.0812 18.0469 9.14375 18.025 9.1 18.025H6.08125V24.1719Z" fill="white"/>
<g opacity="0.1">
<path d="M18.6812 21.7437H14.0656C13.4531 21.7437 12.9719 22.225 12.9719 22.8375H18.6594C19.4687 22.8375 20.1031 22.1812 20.1031 21.3937C20.1031 21.2844 20.0812 20.7156 20.0594 20.6062C19.95 21.2406 19.3594 21.7437 18.6812 21.7437Z" fill="white"/>
</g>
<path d="M18.6812 23.1H12.9937C12.8406 23.1 12.7312 22.9687 12.7312 22.8375C12.7312 22.7062 12.8625 22.575 12.9937 22.575H18.6812C19.3375 22.575 19.8625 22.05 19.8625 21.3937C19.8625 21.3062 19.8625 21.2406 19.8406 21.1531C19.8187 21 19.9062 20.8687 20.0594 20.825C20.2125 20.8031 20.3437 20.8906 20.3875 21.0437C20.4094 21.175 20.4312 21.2844 20.4312 21.4156C20.3875 22.3344 19.6219 23.1 18.6812 23.1Z" fill="white"/>
<g opacity="0.1">
<path d="M7.10938 24.6094V17.7188H5.79688V24.3688L7.10938 24.7844C7.10938 24.7188 7.10938 24.675 7.10938 24.6094Z" fill="white"/>
</g>
<path d="M4.94375 25.7687H3.36875C3.25937 25.7687 3.17187 25.725 3.10625 25.6375C1.46562 22.9906 0.590622 19.95 0.590622 16.8437C0.590622 16.8219 0.590622 16.8 0.590622 16.7781V16.7344C0.590622 16.625 0.656247 16.5375 0.743747 16.4719C0.853122 16.4062 0.962497 16.3844 1.09375 16.3844H4.94375C5.57812 16.3844 6.10312 16.9094 6.10312 17.5437V24.6094C6.10312 25.2437 5.57812 25.7687 4.94375 25.7687ZM3.54375 25.1562H4.96562C5.27187 25.1562 5.5125 24.9156 5.5125 24.6094V17.5437C5.5125 17.2375 5.27187 16.9969 4.96562 16.9969H1.18125C1.20312 19.8844 2.0125 22.7062 3.54375 25.1562Z" fill="white"/>
<path d="M16.4719 14.7C16.3187 14.7 16.2094 14.5906 16.2094 14.4594L15.4 8.225L14.4375 11.55C14.3937 11.6594 14.3062 11.7469 14.175 11.7469C14.0656 11.7469 13.9562 11.6594 13.9125 11.55L12.9719 8.42187L12.2937 9.77812C12.25 9.86562 12.1625 9.93125 12.0531 9.93125H8.3125C8.15937 9.93125 8.05 9.8 8.05 9.66875C8.05 9.5375 8.18125 9.40625 8.3125 9.40625H11.8781L12.7969 7.59062C12.8406 7.48125 12.95 7.4375 13.0594 7.4375C13.1687 7.4375 13.2562 7.525 13.3 7.63437L14.175 10.5219L15.225 6.825C15.2687 6.69375 15.3781 6.62812 15.5094 6.62812C15.6406 6.62812 15.75 6.7375 15.75 6.86875L16.5594 12.9062L17.6969 8.11562C17.7187 7.98437 17.85 7.89687 17.9594 7.89687C18.0906 7.89687 18.2 7.98437 18.2219 8.11562L18.725 10.4562L19.1844 9.51562C19.2281 9.42812 19.3156 9.3625 19.425 9.3625H26.1844C26.3375 9.3625 26.4469 9.49375 26.4469 9.625C26.4469 9.75625 26.3156 9.8875 26.1844 9.8875H19.6L18.8562 11.375C18.8125 11.4844 18.6812 11.5281 18.5719 11.5281C18.4625 11.5062 18.3531 11.4187 18.3312 11.3094L17.9375 9.42812L16.7344 14.4812C16.7125 14.6125 16.6031 14.7 16.4719 14.7Z" fill="white"/>
<path d="M17.1281 17.7406C16.7562 17.7406 16.3625 17.6312 16.0344 17.4344C10.7625 14.2187 7.89687 10.9375 7.28437 7.39375C7.175 6.825 7.13125 6.2125 7.19687 5.62188C7.48125 2.95313 9.73437 0.809375 12.425 0.634375C14.3062 0.503125 16.0562 1.29063 17.2156 2.73438C17.2594 2.8 17.3031 2.8 17.3469 2.73438C18.5062 1.29063 20.2562 0.503125 22.1156 0.634375C24.7844 0.809375 26.9719 2.84375 27.3437 5.46875C27.4531 6.23438 27.4094 7 27.2125 7.72187C26.4469 11.0031 23.4062 14.2844 18.1781 17.4562C17.85 17.6312 17.5 17.7406 17.1281 17.7406ZM12.8187 1.15938C12.7094 1.15938 12.5781 1.15938 12.4687 1.18125C10.0406 1.3125 8.02812 3.25938 7.74375 5.66563C7.67812 6.2125 7.7 6.75937 7.80937 7.28437C8.37812 10.6312 11.2437 13.8906 16.2969 16.975C16.5375 17.1281 16.8219 17.1937 17.1062 17.1937C17.3687 17.1937 17.6531 17.1281 17.8719 16.975C22.9906 13.8906 25.9656 10.7188 26.6875 7.59063C26.8625 6.9125 26.9062 6.23437 26.8187 5.53437C26.4906 3.15 24.5 1.3125 22.0937 1.15938C20.4094 1.05 18.8344 1.75 17.7844 3.0625C17.6531 3.21563 17.4781 3.30313 17.2812 3.30313C17.0844 3.30313 16.9094 3.21563 16.7781 3.0625C15.8156 1.8375 14.3719 1.15938 12.8187 1.15938Z" fill="white"/>
<path opacity="0.2" d="M17.1062 17.4563C17.4344 17.4563 17.7406 17.3687 18.025 17.1937C23.2969 14 26.2062 10.8281 26.95 7.63438C27.125 6.95625 27.1906 6.23438 27.0812 5.49063C26.7312 2.99688 24.6312 1.05 22.1156 0.875C24.2594 6.08125 22.8375 11.5719 17.1062 17.4563Z" fill="white"/>
</g>
<defs>
<clipPath id="clip0_0_1">
<rect width="28" height="28" fill="white"/>
</clipPath>
</defs>
</svg>
